<?xml version="1.0" encoding="UTF-8"?>
<!DOCTYPE svg PUBLIC "-//W3C//DTD SVG 1.1//EN" "http://www.w3.org/Graphics/SVG/1.1/DTD/svg11.dtd">
<!-- Creator: CorelDRAW X7 -->
<svg xmlns="http://www.w3.org/2000/svg" xml:space="preserve" width="122.087mm" height="71.4651mm" version="1.1" style="shape-rendering:geometricPrecision; text-rendering:geometricPrecision; image-rendering:optimizeQuality; fill-rule:evenodd; clip-rule:evenodd"
viewBox="0 0 12198968 7140836"
 xmlns:xlink="http://www.w3.org/1999/xlink">
 <defs>
  <style type="text/css">
   <![CDATA[
    .fil0 {fill:none}
    .fil1 {fill:#FEFEFE}
    .fil2 {fill:#008DD2}
    .fil3 {fill:#2B2A29;fill-rule:nonzero}
   ]]>
  </style>
 </defs>
 <g id="Layer_x0020_1">
  <metadata id="CorelCorpID_0Corel-Layer"/>
  <rect class="fil0" x="-3" y="2" width="12198971" height="7140837"/>
  <g id="_1727244711776">
   <path class="fil1" d="M1082920 1154763l10026064 0c284484,0 517189,235003 517189,522315l0 4634128c0,287301 -232705,522315 -517189,522315l-10026064 0c-284484,0 -517189,-235014 -517189,-522315l0 -4634128c0,-287312 232705,-522315 517189,-522315z"/>
   <path class="fil2" d="M838024 952803l11092757 0 0 5480566c0,313381 -250391,613702 -570037,613702l-10522720 0c-329748,0 -569997,-290829 -569997,-613702l0 -4854194c0,-321065 238590,-626372 569997,-626372zm10575808 524983l-10502746 -40c-32194,0 -126459,17716 -126459,64359l0 4922029c0,39139 98491,58024 126459,58024l10364056 0c30925,0 132385,-20454 139039,-58024l0 -4686986 -349 -299362z"/>
   <path class="fil2" d="M3835213 5518695l-1647072 0c-139269,0 -207305,-115158 -150980,-255916l1113186 -2781600 642809 0 -923536 2302061c-32104,80056 6665,145754 85992,145754l1115603 0 -236002 589701zm2973407 0l-269296 0 104587 -258484c1469,-4217 3028,-8464 4707,-12720l1089634 -2765523 649794 0 -489591 1251726 931420 0c147672,0 243366,146783 184833,296244l-486254 1241174c-61531,157215 -148882,247583 -306876,247583l-1093411 0 -319547 0zm-975075 0l-1338606 0c-147633,0 -219716,-122043 -160023,-271204l621426 -1552747 649804 0 -452401 1140854c-20264,51149 4267,93066 54937,93066l420106 0c53258,0 114689,-44005 136042,-97852l450482 -1136068 630489 0 -615841 1538838c-62710,156725 -241218,285113 -396415,285113zm1824720 -1170989l-86581 221354 -140858 359524 88020 0 3507 80 420097 0c45533,0 97752,-31865 124691,-75010l156435 -408526 13220 -35152c15158,-48251 -8913,-86261 -57295,-86261l-447644 0 -2268 10 -61791 0 -9353 23871 -180 110zm1893356 -655450l629890 0 -729661 1826439 -642329 0 742100 -1826439z"/>
   <path class="fil2" d="M10040732 2485395l179848 0 -73482 181646 -179867 0 73501 -181646zm403950 0l-179868 0 -73501 181646 179867 0 73502 -181646zm44234 0l179847 0 -73481 181646 -179867 0 73501 -181646zm-537463 223303l179867 0 -73501 181646 -179867 0 73501 -181646zm-89279 223272l179867 0 -73501 181656 -179847 0 73481 -181656zm493228 -223272l-179867 0 -73481 181646 179867 0 73481 -181646zm-89279 223272l-179847 0 -73501 181656 179867 0 73481 -181656zm133514 -223272l179867 0 -73501 181646 -179867 0 73501 -181646zm-89279 223272l179867 0 -73501 181656 -179847 0 73481 -181656z"/>
   <path class="fil3" d="M10569462 93795c62900,0 123192,15678 180867,47213 57834,31375 103258,76459 136261,135113 32994,58653 49501,120094 49501,184293 0,63889 -16177,124661 -48521,182665 -32515,57834 -77609,102928 -135443,135442 -58004,32345 -118785,48522 -182665,48522 -63889,0 -124661,-16177 -182664,-48522 -57835,-32514 -102929,-77608 -135443,-135442 -32344,-58004 -48521,-118776 -48521,-182665 0,-64199 16507,-125640 49500,-184293 33004,-58654 78428,-103738 136262,-135113 57674,-31535 117956,-47213 180866,-47213zm330 72533c-50490,0 -98851,12590 -145085,37740 -46243,25170 -82674,61271 -109303,108494 -26639,47052 -40028,96553 -40028,148022 0,51299 13070,100310 39049,146713 25969,46563 62241,82835 108804,108974 46573,26149 95424,39209 146563,39209 51299,0 100151,-13060 146544,-39209 46573,-26139 82844,-62411 108983,-108974 26139,-46403 39209,-95414 39209,-146713 0,-51469 -13389,-100970 -40028,-148022 -26629,-47223 -63060,-83324 -109463,-108494 -46563,-25150 -94925,-37740 -145245,-37740zm-165998 490150l0 -388191 78747 0c73852,0 115349,320 124172,979 26139,2118 46403,7344 60941,15518 14379,8003 26469,20424 36272,37250 9632,16667 14538,35292 14538,55546 0,28108 -9153,51959 -27448,71893 -18296,19934 -43945,32184 -76949,37090 11761,4407 20903,9303 27278,14539 6375,5226 15198,15188 26309,29736 2938,3917 12410,19605 28758,47383l45583 78257 -98032 0 -32184 -63229c-21733,-42317 -39699,-69115 -53917,-80057 -14379,-10951 -32345,-16507 -54247,-16507l-20414 0 0 159793 -79407 0zm79407 -221544l31855 0c45414,0 73681,-1798 84632,-5235 10942,-3428 19605,-9473 25980,-18136 6365,-8653 9472,-18455 9472,-29567 0,-10621 -3107,-20263 -9312,-28587 -6205,-8333 -15028,-14388 -26469,-17976 -11441,-3597 -39539,-5395 -84303,-5395l-31855 0 0 104896zm1080931 -341139c62910,0 123192,15838 180866,47373 57834,31535 103258,76629 136262,135282 33004,58494 49501,119765 49501,183964 0,63889 -16167,124661 -48522,182665 -32514,57834 -77608,102928 -135442,135442 -58004,32345 -118776,48522 -182665,48522 -63879,0 -124661,-16177 -182655,-48522 -57834,-32514 -102938,-77608 -135452,-135442 -32344,-58004 -48522,-118776 -48522,-182665 0,-64199 16507,-125470 49501,-183964 33004,-58653 78438,-103747 136272,-135282 57674,-31535 117956,-47373 180856,-47373zm0 72533c-50320,0 -98682,12590 -145075,37740 -46403,25170 -82834,61271 -109303,108324 -26479,47052 -39708,96393 -39708,148022 0,50980 13069,99831 39049,146394 25979,46403 62250,82674 108653,108644 46563,25979 95415,39049 146384,39049 50980,0 99831,-13070 146394,-39049 46403,-25970 82674,-62241 108643,-108644 25980,-46563 39059,-95414 39059,-146394 0,-51299 -13239,-100640 -39708,-147692 -26469,-47213 -62900,-83484 -109303,-108654 -46403,-25150 -94765,-37740 -145085,-37740zm88230 348983l77438 25489c-12080,40518 -32184,71563 -60122,93126 -27938,21573 -61431,32355 -100150,32355 -54567,0 -98852,-17976 -133324,-53758 -34303,-35781 -51459,-85282 -51459,-148182 0,-41337 7674,-78098 22871,-110442 15358,-32354 37411,-56375 66168,-72383 28757,-16007 60941,-24021 96563,-24021 39209,0 71883,9323 98192,28098 26139,18635 46563,48202 61261,88560l-77438 18625c-8823,-23362 -20424,-40348 -34473,-50810 -14218,-10621 -30875,-15847 -50320,-15847 -28917,0 -52448,10941 -70903,32834 -18476,21892 -27618,56045 -27618,102608 0,46723 8982,81036 27118,103098 17976,22053 39709,32994 65028,32994 21244,0 39539,-6375 55057,-18945 15527,-12750 27618,-33823 36111,-63399z"/>
  </g>
 </g>
</svg>
