<?xml version="1.0" standalone="no"?>
<!DOCTYPE svg PUBLIC "-//W3C//DTD SVG 20010904//EN"
 "http://www.w3.org/TR/2001/REC-SVG-20010904/DTD/svg10.dtd">
<svg version="1.0" xmlns="http://www.w3.org/2000/svg"
 width="8000.000000pt" height="4500.000000pt" viewBox="0 0 8000.000000 4500.000000"
 preserveAspectRatio="xMidYMid meet">

<g transform="translate(0.000000,4500.000000) scale(0.100000,-0.100000)"
fill="#000000" stroke="none">
<path d="M30378 31748 c-1856 -2207 -3454 -4110 -3553 -4228 -1590 -1915
-2374 -3240 -2779 -4700 -406 -1466 -420 -3233 -36 -4787 162 -659 382 -1255
693 -1875 l149 -298 2734 0 c1504 0 2734 2 2734 4 0 2 -26 19 -57 36 -95 53
-336 214 -446 297 -602 456 -1076 1029 -1416 1713 -291 585 -462 1183 -537
1875 -21 202 -30 762 -15 966 68 890 337 1705 796 2405 278 425 667 842 1078
1158 783 601 1791 950 2837 984 884 29 1657 -126 2385 -477 229 -111 357 -184
570 -326 1140 -761 1886 -2003 2065 -3435 54 -432 55 -917 4 -1375 -153 -1377
-813 -2616 -1820 -3421 -173 -138 -288 -217 -559 -385 -29 -18 224 -19 9987
-19 l10017 0 75 143 c447 849 764 1843 900 2822 60 433 80 738 80 1215 0 471
-18 749 -75 1185 -206 1569 -879 3122 -1884 4350 -259 316 -639 717 -920 971
-1412 1273 -3185 2055 -5060 2229 -443 41 -1130 45 -1540 10 -1911 -164 -3635
-896 -5085 -2160 -185 -161 -647 -626 -810 -815 -156 -181 -321 -386 -445
-555 -48 -66 -91 -124 -95 -128 -4 -4 -54 59 -112 140 -1277 1800 -3268 3009
-5613 3408 -520 89 -984 130 -1608 143 l-318 7 3086 3459 c1697 1902 3088
3463 3091 3467 3 5 -1149 9 -2560 9 l-2564 0 -3374 -4012z m15262 -10483 l0
-414 -717 -3 -718 -3 -57 -23 c-81 -33 -160 -108 -200 -190 -30 -61 -33 -74
-33 -162 0 -86 3 -101 33 -161 36 -75 95 -134 174 -176 l53 -28 733 -3 732 -3
0 -1254 0 -1255 -1670 0 -1670 0 0 415 0 415 684 0 c417 0 704 4 736 10 124
24 229 102 278 208 55 121 51 310 -10 424 -38 72 -113 140 -188 171 -55 22
-56 22 -777 25 l-723 3 0 1209 0 1210 1670 0 1670 0 0 -415z m4040 0 l0 -415
-690 0 c-472 0 -706 -4 -742 -11 -117 -25 -212 -99 -265 -207 -25 -51 -28 -67
-28 -162 0 -94 3 -111 28 -161 32 -67 118 -151 184 -182 48 -22 50 -22 781
-25 l732 -3 0 -1254 0 -1255 -1670 0 -1670 0 0 415 0 414 718 3 717 3 57 23
c81 33 160 108 200 190 32 65 33 69 33 202 0 130 -1 137 -31 200 -39 83 -101
145 -184 184 l-65 31 -722 3 -723 3 0 1209 0 1210 1670 0 1670 0 0 -415z
m4038 -407 l-3 -763 -628 -3 c-591 -2 -628 -1 -634 15 -97 287 -241 443 -408
443 -185 0 -349 -199 -429 -520 -39 -157 -48 -238 -48 -425 1 -348 91 -647
245 -812 245 -262 544 -72 667 425 l11 42 614 0 615 0 0 -845 0 -845 -1675 0
-1675 0 0 2025 0 2025 1675 0 1675 0 -2 -762z"/>
<path d="M36540 14691 c-89 -29 -141 -60 -206 -125 -100 -100 -148 -226 -147
-386 1 -159 45 -272 148 -376 103 -104 263 -161 385 -137 28 6 49 7 48 2 -2
-4 -77 -92 -169 -196 -91 -103 -168 -194 -173 -200 -5 -10 13 -13 81 -13 l88
0 234 274 c256 300 311 376 342 475 24 77 28 236 9 316 -44 181 -173 317 -349
369 -74 22 -219 20 -291 -3z m303 -155 c72 -35 149 -118 178 -194 18 -46 23
-77 23 -157 0 -134 -24 -195 -108 -281 -75 -76 -142 -104 -246 -104 -104 0
-171 28 -246 104 -83 84 -107 147 -108 276 -1 118 25 197 91 270 82 91 155
121 279 117 64 -3 93 -9 137 -31z"/>
<path d="M49855 14696 c-56 -14 -130 -46 -160 -69 -19 -15 -19 -16 19 -71 l38
-55 37 18 c104 53 240 66 333 31 70 -26 117 -66 153 -131 27 -49 30 -62 30
-150 0 -90 -2 -99 -38 -172 -40 -80 -56 -99 -501 -567 l-166 -175 0 -47 0 -48
465 0 c400 0 465 2 465 15 0 7 -5 37 -11 64 l-11 51 -341 2 -342 3 156 160
c373 384 410 431 456 564 30 88 31 222 3 312 -35 115 -127 207 -247 251 -72
27 -260 34 -338 14z"/>
<path d="M51542 14691 c-340 -84 -552 -389 -529 -764 8 -119 26 -195 71 -292
87 -186 246 -319 451 -376 113 -32 288 -32 398 -1 206 58 356 181 447 367 53
108 71 178 77 316 18 373 -190 668 -528 749 -109 26 -283 26 -387 1z m337
-136 c203 -48 361 -206 416 -415 23 -86 23 -244 1 -329 -56 -209 -209 -366
-409 -418 -81 -21 -224 -21 -306 1 -198 51 -353 212 -406 421 -8 33 -15 103
-15 160 0 119 17 192 66 294 66 134 211 249 360 285 79 19 214 19 293 1z"/>
<path d="M53143 14695 c-60 -16 -176 -72 -171 -83 2 -4 18 -30 37 -58 l35 -51
70 31 c64 27 81 30 176 31 95 0 110 -3 155 -27 107 -57 160 -145 158 -268 -1
-85 -25 -159 -74 -234 -17 -26 -165 -187 -328 -358 l-296 -311 -3 -54 -3 -53
466 0 c439 0 466 1 461 18 -3 9 -8 38 -12 64 l-6 48 -344 2 -343 3 239 248
c319 330 368 402 393 569 34 233 -89 426 -308 483 -73 19 -231 19 -302 0z"/>
<path d="M35212 14639 c-22 -92 -25 -89 83 -89 l95 0 0 -645 0 -645 70 0 70 0
0 715 0 715 -153 0 -154 0 -11 -51z"/>
<path d="M38071 14419 c-331 -386 -360 -435 -368 -624 -9 -176 40 -310 151
-420 151 -149 381 -185 576 -89 186 92 291 288 276 516 -19 292 -236 494 -509
475 l-77 -5 62 71 c104 119 271 311 286 330 14 16 10 17 -75 17 l-90 0 -232
-271z m242 -289 c88 -27 164 -96 209 -188 31 -63 33 -72 33 -177 -1 -143 -23
-205 -104 -286 -72 -72 -145 -102 -251 -102 -61 -1 -86 4 -135 27 -155 70
-243 244 -215 422 38 239 241 372 463 304z"/>
<path d="M39607 14451 c-313 -364 -351 -417 -382 -538 -8 -31 -15 -98 -15
-148 0 -165 45 -282 149 -386 114 -113 259 -162 419 -141 196 26 343 147 410
336 35 98 37 258 5 361 -69 222 -263 357 -490 343 l-73 -5 57 66 c76 88 261
300 287 329 l19 22 -90 0 -91 0 -205 -239z m251 -336 c78 -35 151 -112 183
-193 19 -46 23 -76 24 -163 0 -102 -1 -107 -38 -181 -66 -135 -170 -200 -317
-201 -100 -1 -179 34 -250 109 -200 212 -105 585 167 654 66 16 163 6 231 -25z"/>
<path d="M54713 14442 c-255 -298 -296 -350 -335 -426 -103 -203 -64 -478 91
-635 190 -195 513 -197 707 -6 70 69 117 153 140 252 21 90 14 244 -15 327
-73 208 -272 341 -486 324 -36 -3 -65 -4 -65 -1 0 2 76 91 168 196 92 106 171
198 176 205 5 9 -13 12 -81 12 l-88 0 -212 -248z m251 -320 c194 -86 276 -331
180 -542 -65 -144 -223 -227 -378 -199 -117 21 -205 89 -259 198 -30 63 -32
72 -32 181 0 106 2 120 29 178 40 87 125 164 209 192 77 25 183 22 251 -8z"/>
<path d="M43850 13860 l0 -40 1560 0 1560 0 0 40 0 40 -1560 0 -1560 0 0 -40z"/>
<path d="M41770 10415 l0 -1105 285 0 285 0 0 1105 0 1105 -285 0 -285 0 0
-1105z"/>
<path d="M54090 11150 l0 -361 -52 40 c-113 83 -219 114 -393 113 -368 -2
-644 -207 -751 -557 -26 -84 -28 -102 -28 -265 0 -206 15 -276 89 -418 138
-268 381 -412 696 -412 182 0 329 47 427 137 l42 40 0 -79 0 -78 268 2 267 3
3 1098 2 1097 -285 0 -285 0 0 -360z m-174 -685 c64 -31 118 -89 152 -164 21
-46 27 -75 30 -158 8 -188 -52 -309 -184 -374 -59 -29 -76 -33 -148 -33 -97 0
-152 21 -221 85 -97 89 -136 237 -105 400 26 136 118 236 247 269 63 16 169 4
229 -25z"/>
<path d="M31992 11428 c-256 -32 -495 -144 -665 -313 -136 -135 -232 -305
-280 -495 -19 -73 -22 -112 -21 -275 0 -162 4 -202 22 -267 57 -207 128 -333
272 -479 153 -155 303 -240 518 -295 347 -88 737 -30 1005 150 105 70 226 190
212 210 -16 23 -353 326 -362 326 -5 0 -29 -21 -53 -46 -66 -67 -165 -129
-255 -160 -67 -22 -97 -27 -185 -27 -181 0 -306 48 -420 163 -111 112 -162
246 -162 430 -1 174 46 308 145 416 99 109 236 171 396 181 173 10 324 -45
455 -168 68 -63 78 -70 94 -58 53 42 347 315 350 324 5 22 -181 188 -261 234
-234 132 -518 185 -805 149z"/>
<path d="M25096 11399 c-120 -16 -228 -49 -331 -99 -249 -122 -375 -312 -375
-570 0 -199 68 -333 225 -445 104 -74 239 -123 531 -189 236 -54 342 -92 386
-135 87 -88 42 -201 -96 -244 -26 -7 -103 -12 -211 -12 -153 0 -181 3 -278 28
-126 33 -256 83 -340 133 -33 19 -61 34 -62 32 -2 -2 -46 -100 -98 -218 l-96
-215 52 -32 c106 -66 323 -138 527 -175 49 -8 156 -13 305 -13 248 1 328 12
476 71 234 91 390 261 435 474 32 150 1 326 -76 433 -111 155 -263 228 -673
323 -325 75 -395 106 -418 184 -10 33 -9 47 5 84 33 85 115 125 277 133 180 9
359 -28 537 -112 92 -44 93 -44 102 -22 4 12 45 109 89 216 45 106 78 198 75
203 -10 15 -141 73 -231 101 -157 50 -284 69 -483 72 -102 2 -216 -1 -254 -6z"/>
<path d="M27005 11394 c-363 -56 -612 -252 -670 -529 -28 -133 -13 -277 40
-390 17 -35 53 -82 96 -125 117 -115 250 -171 609 -255 299 -70 383 -104 415
-171 37 -79 -7 -165 -104 -200 -69 -25 -299 -31 -421 -10 -126 22 -284 76
-398 136 -81 43 -93 47 -101 32 -37 -69 -181 -408 -177 -418 7 -19 178 -102
277 -134 51 -17 149 -43 218 -57 117 -25 144 -27 366 -27 213 0 251 2 334 22
289 68 495 228 571 445 28 77 38 246 20 330 -20 97 -72 188 -148 257 -120 110
-242 162 -557 235 -415 96 -474 128 -463 247 11 110 126 168 334 168 159 0
345 -46 508 -126 38 -19 70 -33 71 -32 9 15 175 426 175 434 0 26 -240 117
-390 148 -189 38 -433 47 -605 20z"/>
<path d="M29195 11396 c-453 -75 -787 -363 -901 -776 -32 -118 -44 -340 -24
-471 60 -412 357 -745 771 -863 119 -34 217 -46 372 -46 284 0 524 73 717 219
67 50 170 153 170 169 0 5 -83 84 -183 175 l-184 166 -65 -62 c-73 -70 -147
-117 -234 -149 -50 -19 -80 -22 -199 -23 -127 0 -147 2 -212 26 -230 84 -364
288 -366 554 0 127 15 199 64 302 69 144 190 241 355 283 227 58 460 -11 616
-183 l37 -41 28 25 c15 14 99 90 186 168 86 79 157 145 157 148 0 17 -81 100
-151 156 -122 98 -284 172 -464 212 -97 22 -386 28 -490 11z"/>
<path d="M43460 10350 l0 -1040 295 0 295 0 0 270 0 270 178 0 c468 1 696 62
887 241 143 135 215 309 215 525 0 432 -288 714 -779 764 -57 5 -325 10 -597
10 l-494 0 0 -1040z m1069 554 c82 -23 143 -71 177 -141 25 -51 29 -69 29
-148 0 -81 -3 -96 -30 -144 -33 -59 -67 -89 -141 -123 -46 -21 -65 -23 -281
-26 l-233 -4 0 301 0 301 212 0 c161 0 225 -4 267 -16z"/>
<path d="M49970 10350 l0 -1040 785 0 785 0 0 235 0 235 -495 0 -495 0 0 805
0 805 -290 0 -290 0 0 -1040z"/>
<path d="M37300 11080 l0 -210 -120 0 -120 0 0 -215 0 -215 120 0 120 0 0
-327 c0 -362 7 -417 60 -530 42 -90 132 -182 223 -227 121 -59 181 -70 367
-71 177 0 241 11 347 60 l53 24 -56 158 c-31 87 -63 176 -70 199 l-15 41 -42
-21 c-27 -13 -67 -22 -112 -24 -85 -4 -129 16 -162 74 -22 38 -23 47 -23 342
l0 302 185 0 185 0 -2 213 -3 212 -182 3 -183 2 -2 208 -3 207 -282 3 -283 2
0 -210z"/>
<path d="M47500 11070 l0 -210 -115 0 -115 0 0 -210 0 -210 114 0 114 0 4
-342 c5 -375 8 -401 68 -525 63 -129 213 -234 382 -268 101 -20 297 -20 396 1
78 16 192 60 192 75 0 7 -130 382 -134 386 -1 1 -22 -7 -46 -19 -61 -31 -177
-32 -216 -2 -42 31 -65 67 -75 115 -4 24 -8 164 -9 312 l0 267 185 0 185 0 0
210 0 210 -185 0 -185 0 0 210 0 210 -280 0 -280 0 0 -210z"/>
<path d="M51770 11070 l0 -210 -120 0 -120 0 0 -210 0 -210 119 0 120 0 3
-352 c4 -352 4 -353 31 -434 63 -188 201 -304 419 -349 88 -19 302 -19 388 -1
63 14 161 47 188 64 10 7 -1 48 -47 178 -32 93 -64 181 -70 196 l-10 27 -46
-20 c-109 -48 -213 -31 -263 44 l-27 40 -3 304 -3 303 185 0 186 0 0 210 0
210 -185 0 -185 0 0 210 0 210 -280 0 -280 0 0 -210z"/>
<path d="M33830 10934 c-450 -84 -735 -436 -707 -873 21 -313 189 -555 482
-692 139 -65 232 -83 430 -83 142 0 184 3 257 22 172 43 292 108 410 220 173
166 259 388 245 635 -8 128 -29 213 -82 322 -105 216 -294 364 -551 431 -128
34 -354 42 -484 18z m308 -449 c98 -29 189 -122 218 -221 21 -73 21 -215 -1
-289 -29 -102 -92 -176 -184 -219 -66 -30 -207 -30 -273 1 -110 51 -180 151
-199 288 -19 141 13 264 92 350 87 94 218 128 347 90z"/>
<path d="M36065 10934 c-83 -17 -233 -88 -292 -138 -22 -20 -44 -36 -47 -36
-3 0 -6 36 -6 80 l0 80 -270 0 -270 0 0 -805 0 -805 285 0 285 0 0 425 c0 276
4 443 11 477 23 107 78 182 169 229 38 20 60 24 140 24 86 0 100 -3 142 -28
57 -33 97 -96 115 -181 9 -44 13 -185 13 -503 l0 -443 285 0 285 0 0 463 c0
254 -5 510 -10 570 -19 196 -79 334 -192 440 -76 71 -191 129 -300 151 -94 19
-249 19 -343 0z"/>
<path d="M39440 10935 c-130 -27 -230 -75 -307 -147 l-53 -51 0 92 0 91 -270
0 -270 0 0 -805 0 -805 285 0 284 0 3 444 3 443 35 69 c40 78 97 128 183 160
41 15 78 19 170 19 l117 0 0 253 0 252 -57 -1 c-32 0 -87 -7 -123 -14z"/>
<path d="M40418 10935 c-341 -65 -590 -282 -680 -592 -30 -103 -32 -341 -4
-442 42 -152 114 -269 235 -383 98 -93 235 -167 379 -205 86 -24 116 -27 272
-27 217 -1 300 17 470 101 103 51 125 66 211 153 86 85 102 107 147 200 67
139 87 231 85 390 -1 91 -7 146 -22 204 -79 297 -301 506 -623 587 -110 27
-359 35 -470 14z m355 -469 c67 -32 120 -89 156 -165 24 -51 26 -66 26 -186 0
-120 -2 -135 -26 -186 -36 -76 -90 -133 -157 -166 -50 -24 -69 -28 -147 -28
-112 0 -173 25 -240 96 -57 61 -81 115 -97 213 -28 181 43 350 175 418 61 31
93 37 178 34 59 -2 90 -9 132 -30z"/>
<path d="M45383 10888 c8 -18 157 -381 332 -806 l318 -772 290 2 290 3 329
794 c180 437 328 798 328 803 0 5 -120 7 -266 6 l-266 -3 -198 -480 c-110
-264 -202 -480 -206 -480 -6 0 -56 124 -309 768 l-77 197 -289 0 -289 0 13
-32z"/>
<path d="M48872 9931 c-142 -49 -224 -186 -208 -350 11 -124 101 -238 220
-277 73 -25 205 -16 271 18 131 68 200 208 175 359 -21 122 -92 209 -208 251
-64 23 -182 23 -250 -1z"/>
<path d="M55113 9936 c-96 -31 -168 -99 -203 -192 -18 -48 -21 -74 -18 -140 7
-142 81 -247 207 -295 80 -30 214 -24 286 13 110 57 166 148 173 279 6 113
-14 175 -77 242 -70 75 -127 100 -236 104 -57 2 -105 -2 -132 -11z"/>
</g>
</svg>
