<?xml version="1.0" encoding="UTF-8"?>
<svg version="1.1" xmlns="http://www.w3.org/2000/svg" width="596" height="520">
<path d="M0 0 C196.68 0 393.36 0 596 0 C596 171.6 596 343.2 596 520 C399.32 520 202.64 520 0 520 C0 348.4 0 176.8 0 0 Z " fill="#FEFEFE" transform="translate(0,0)"/>
<path d="M0 0 C121.44 0 242.88 0 368 0 C368 23.43 368 46.86 368 71 C246.56 71 125.12 71 0 71 C0 47.57 0 24.14 0 0 Z " fill="#079A51" transform="translate(112,207)"/>
<path d="M0 0 C121.44 0 242.88 0 368 0 C368 0.33 368 0.66 368 1 C268.34 1 168.68 1 66 1 C66 23.77 66 46.54 66 70 C165.66 70 265.32 70 368 70 C368 70.33 368 70.66 368 71 C246.56 71 125.12 71 0 71 C0 47.57 0 24.14 0 0 Z " fill="#6A96BB" transform="translate(112,207)"/>
<path d="M0 0 C0.33 0 0.66 0 1 0 C1 24.75 1 49.5 1 75 C0.67 74.34 0.34 73.68 0 73 C-6.93 73 -13.86 73 -21 73 C-21 73.66 -21 74.32 -21 75 C-19.35 75.33 -17.7 75.66 -16 76 C-16 76.66 -16 77.32 -16 78 C-17.32 78 -18.64 78 -20 78 C-20 78.99 -20 79.98 -20 81 C-18.68 81.66 -17.36 82.32 -16 83 C-16 85.31 -16 87.62 -16 90 C-17.95825873 90.02694851 -19.91662226 90.04637218 -21.875 90.0625 C-23.51082031 90.07990234 -23.51082031 90.07990234 -25.1796875 90.09765625 C-28 90 -28 90 -30 89 C-30.33 88.01 -30.66 87.02 -31 86 C-31.66 85.67 -32.32 85.34 -33 85 C-33 86.65 -33 88.3 -33 90 C-34.65 90 -36.3 90 -38 90 C-38 89.01 -38 88.02 -38 87 C-38.7734375 87.495 -38.7734375 87.495 -39.5625 88 C-42.87219404 89.3578232 -45.45640517 89.32214498 -49 89 C-50.9375 87.6875 -50.9375 87.6875 -52 86 C-52 85.01 -52 84.02 -52 83 C-52.66 83 -53.32 83 -54 83 C-54 84.98 -54 86.96 -54 89 C-56.64 89 -59.28 89 -62 89 C-60.68 88.34 -59.36 87.68 -58 87 C-58 86.34 -58 85.68 -58 85 C-59.65 84.34 -61.3 83.68 -63 83 C-63 82.34 -63 81.68 -63 81 C-63.66 81 -64.32 81 -65 81 C-65 83.64 -65 86.28 -65 89 C-66.65 88.67 -68.3 88.34 -70 88 C-70 87.01 -70 86.02 -70 85 C-70.66 85 -71.32 85 -72 85 C-72.33 86.65 -72.66 88.3 -73 90 C-74.9375 89.625 -74.9375 89.625 -77 89 C-77.33 88.34 -77.66 87.68 -78 87 C-78.33 87.99 -78.66 88.98 -79 90 C-80.45792884 90.05399736 -81.91642712 90.09279177 -83.375 90.125 C-84.18710937 90.14820313 -84.99921875 90.17140625 -85.8359375 90.1953125 C-88 90 -88 90 -90 88 C-92.22128555 87.97691403 -92.22128555 87.97691403 -94.625 88.375 C-95.44226563 88.48585938 -96.25953125 88.59671875 -97.1015625 88.7109375 C-97.72804688 88.80632812 -98.35453125 88.90171875 -99 89 C-96 87 -96 87 -94 87 C-94 86.01 -94 85.02 -94 84 C-94.61875 83.87625 -95.2375 83.7525 -95.875 83.625 C-98 83 -98 83 -100 81 C-99.44444444 76.44444444 -99.44444444 76.44444444 -98 75 C-95.47690571 74.92765321 -92.96851553 75.00364978 -90.4453125 75.0625 C-87.85988991 75.11545494 -87.85988991 75.11545494 -85 74 C-94.24 74 -103.48 74 -113 74 C-112.34 74.33 -111.68 74.66 -111 75 C-111 79.62 -111 84.24 -111 89 C-115 87 -115 87 -117 84 C-117.33 85.98 -117.66 87.96 -118 90 C-119.32 90 -120.64 90 -122 90 C-122.33 88.02 -122.66 86.04 -123 84 C-123.33 84.66 -123.66 85.32 -124 86 C-124.66 86 -125.32 86 -126 86 C-126.33 86.99 -126.66 87.98 -127 89 C-133.36427851 89.36024218 -133.36427851 89.36024218 -135.875 87.9375 C-137.53485045 85.07886867 -137.69315029 82.25260697 -138 79 C-138.06058594 79.71027344 -138.12117187 80.42054688 -138.18359375 81.15234375 C-138.26738281 82.07144531 -138.35117187 82.99054688 -138.4375 83.9375 C-138.55931641 85.31228516 -138.55931641 85.31228516 -138.68359375 86.71484375 C-139 89 -139 89 -140 90 C-141.65 90 -143.3 90 -145 90 C-145.33 86.7 -145.66 83.4 -146 80 C-147.32 79.67 -148.64 79.34 -150 79 C-150 82.3 -150 85.6 -150 89 C-150.99 89 -151.98 89 -153 89 C-153 85.37 -153 81.74 -153 78 C-154.98 78 -156.96 78 -159 78 C-159 81.63 -159 85.26 -159 89 C-161.475 89.495 -161.475 89.495 -164 90 C-164.33 89.01 -164.66 88.02 -165 87 C-165.53625 87.495 -166.0725 87.99 -166.625 88.5 C-169.59358445 90.37489544 -171.55312427 90.23501425 -175 90 C-175 88.68 -175 87.36 -175 86 C-174.34 86 -173.68 86 -173 86 C-173 85.34 -173 84.68 -173 84 C-176.51547578 85.93837265 -176.51547578 85.93837265 -179.375 88.6875 C-182.01759995 90.82190765 -184.74215351 90.18440641 -188 90 C-188.33 89.01 -188.66 88.02 -189 87 C-190.37514541 85.2912354 -190.37514541 85.2912354 -192 84 C-192.66 84 -193.32 84 -194 84 C-194 84.66 -194 85.32 -194 86 C-195.32 86 -196.64 86 -198 86 C-198.33 87.32 -198.66 88.64 -199 90 C-200.32 89.67 -201.64 89.34 -203 89 C-203 84.38 -203 79.76 -203 75 C-200.525 74.505 -200.525 74.505 -198 74 C-203.61 74 -209.22 74 -215 74 C-214.34 74.33 -213.68 74.66 -213 75 C-213.33 76.32 -213.66 77.64 -214 79 C-214.99 79 -215.98 79 -217 79 C-217 79.99 -217 80.98 -217 82 C-215.68 82.66 -214.36 83.32 -213 84 C-213 85.65 -213 87.3 -213 89 C-215.95664519 90.4783226 -218.74229737 90.06032783 -222 90 C-222 89.01 -222 88.02 -222 87 C-222.35707031 87.49113281 -222.71414063 87.98226562 -223.08203125 88.48828125 C-225.90553095 90.71372806 -228.15218954 90.29250922 -231.6875 90.1875 C-233.45673828 90.14689453 -233.45673828 90.14689453 -235.26171875 90.10546875 C-236.16535156 90.07066406 -237.06898438 90.03585937 -238 90 C-238 89.01 -238 88.02 -238 87 C-239.65 87 -241.3 87 -243 87 C-243 87.99 -243 88.98 -243 90 C-245.31243792 90.02685412 -247.6249627 90.04632841 -249.9375 90.0625 C-251.22527344 90.07410156 -252.51304687 90.08570313 -253.83984375 90.09765625 C-257 90 -257 90 -258 89 C-258.45765667 86.01110641 -258.70320951 83.01030352 -259 80 C-261.97 80 -264.94 80 -268 80 C-267.67 81.65 -267.34 83.3 -267 85 C-264.69 85.33 -262.38 85.66 -260 86 C-260.495 87.98 -260.495 87.98 -261 90 C-267.40096618 90.48309179 -267.40096618 90.48309179 -269.9375 88.4375 C-271.41282332 85.05293473 -271.45674603 82.65396822 -271 79 C-269.1875 76.5625 -269.1875 76.5625 -267 75 C-266.01 75 -265.02 75 -264 75 C-264 74.34 -264 73.68 -264 73 C-274.395 73.495 -274.395 73.495 -285 74 C-283.68 75.65 -282.36 77.3 -281 79 C-280.53310496 83.43550292 -280.88799528 86.13925537 -283 90 C-291.66666667 90 -300.33333333 90 -309 90 C-309.33 89.01 -309.66 88.02 -310 87 C-310.99 86.505 -310.99 86.505 -312 86 C-312 87.32 -312 88.64 -312 90 C-313.98 90 -315.96 90 -318 90 C-318 89.01 -318 88.02 -318 87 C-321.11785113 87.64644661 -321.11785113 87.64644661 -322 90 C-324.31 90 -326.62 90 -329 90 C-331.16811824 86.74782265 -331.29850496 83.78024821 -331.4609375 80 C-331 78 -331 78 -327 74 C-346.8 73.505 -346.8 73.505 -367 73 C-367.33 72.34 -367.66 71.68 -368 71 C-246.56 71 -125.12 71 0 71 C0 47.57 0 24.14 0 0 Z " fill="#F1FBF9" transform="translate(480,207)"/>
<path d="M0 0 C1.34778189 -0.05559472 2.69560024 -0.11031428 4.04345703 -0.1640625 C5.24542725 -0.22916016 6.44739746 -0.29425781 7.68579102 -0.36132812 C10.79736328 0.2421875 10.79736328 0.2421875 13.06005859 3.08447266 C13.92002441 4.6475415 13.92002441 4.6475415 14.79736328 6.2421875 C16.54016561 8.2438747 18.28976445 10.1904336 20.10986328 12.1171875 C21.08438368 13.16614477 22.05834145 14.21562501 23.03173828 15.265625 C23.7384668 16.02504395 23.7384668 16.02504395 24.45947266 16.79980469 C26.28013619 18.76266603 28.07841746 20.74367475 29.85986328 22.7421875 C30.38708984 23.33 30.91431641 23.9178125 31.45751953 24.5234375 C32.87204629 26.33799078 33.84072932 28.15498614 34.79736328 30.2421875 C35.45736328 30.2421875 36.11736328 30.2421875 36.79736328 30.2421875 C36.79736328 21.9921875 36.79736328 13.7421875 36.79736328 5.2421875 C35.14736328 4.9121875 33.49736328 4.5821875 31.79736328 4.2421875 C31.79736328 3.5821875 31.79736328 2.9221875 31.79736328 2.2421875 C36.08736328 2.2421875 40.37736328 2.2421875 44.79736328 2.2421875 C44.46736328 3.2321875 44.13736328 4.2221875 43.79736328 5.2421875 C42.47736328 5.2421875 41.15736328 5.2421875 39.79736328 5.2421875 C39.79736328 17.4521875 39.79736328 29.6621875 39.79736328 42.2421875 C35.10927953 41.07016656 34.56145298 39.6781839 31.90673828 35.89453125 C28.56877998 31.69735776 24.68863219 28.05173017 20.82324219 24.34301758 C17.23888953 20.85923874 14.49933846 17.43834249 11.79736328 13.2421875 C11.13736328 12.9121875 10.47736328 12.5821875 9.79736328 12.2421875 C10.12736328 20.8221875 10.45736328 29.4021875 10.79736328 38.2421875 C12.44736328 38.5721875 14.09736328 38.9021875 15.79736328 39.2421875 C16.12736328 40.2321875 16.45736328 41.2221875 16.79736328 42.2421875 C8.87736328 42.7371875 8.87736328 42.7371875 0.79736328 43.2421875 C-0.20263672 39.2421875 -0.20263672 39.2421875 0.79736328 37.2421875 C-0.19263672 37.5721875 -1.18263672 37.9021875 -2.20263672 38.2421875 C-1.54263672 35.6021875 -0.88263672 32.9621875 -0.20263672 30.2421875 C-1.85263672 30.5721875 -3.50263672 30.9021875 -5.20263672 31.2421875 C-4.21263672 31.5721875 -3.22263672 31.9021875 -2.20263672 32.2421875 C-2.86263672 35.2121875 -3.52263672 38.1821875 -4.20263672 41.2421875 C-14.10263672 41.2421875 -24.00263672 41.2421875 -34.20263672 41.2421875 C-34.20263672 40.5821875 -34.20263672 39.9221875 -34.20263672 39.2421875 C-32.88263672 39.2421875 -31.56263672 39.2421875 -30.20263672 39.2421875 C-30.20263672 28.0221875 -30.20263672 16.8021875 -30.20263672 5.2421875 C-31.52263672 5.2421875 -32.84263672 5.2421875 -34.20263672 5.2421875 C-34.20263672 3.9221875 -34.20263672 2.6021875 -34.20263672 1.2421875 C-30.20495144 1.09632339 -26.20715214 0.95412312 -22.20922852 0.81494141 C-20.20110711 0.74433136 -18.1930807 0.67103582 -16.18505859 0.59765625 C-12.86790653 0.48298927 -9.55116025 0.39202433 -6.23309326 0.30957031 C-4.15242436 0.24052115 -2.07814013 0.12262336 0 0 Z " fill="#08984E" transform="translate(358.20263671875,222.7578125)"/>
<path d="M0 0 C1.29824707 0.0028299 2.59649414 0.00565979 3.93408203 0.00857544 C7.36012692 0.01615613 10.78599812 0.03575565 14.2119751 0.0579834 C17.71811576 0.07856281 21.2242849 0.08760284 24.73046875 0.09765625 C31.59121649 0.11900774 38.45184987 0.15307514 45.3125 0.1953125 C45.3125 0.8553125 45.3125 1.5153125 45.3125 2.1953125 C46.9625 2.5253125 48.6125 2.8553125 50.3125 3.1953125 C50.3125 3.8553125 50.3125 4.5153125 50.3125 5.1953125 C48.9925 5.1953125 47.6725 5.1953125 46.3125 5.1953125 C46.3125 6.1853125 46.3125 7.1753125 46.3125 8.1953125 C47.6325 8.8553125 48.9525 9.5153125 50.3125 10.1953125 C50.3125 12.5053125 50.3125 14.8153125 50.3125 17.1953125 C48.35424127 17.22226101 46.39587774 17.24168468 44.4375 17.2578125 C42.80167969 17.27521484 42.80167969 17.27521484 41.1328125 17.29296875 C38.3125 17.1953125 38.3125 17.1953125 36.3125 16.1953125 C35.8175 14.7103125 35.8175 14.7103125 35.3125 13.1953125 C34.3225 12.7003125 34.3225 12.7003125 33.3125 12.1953125 C33.3125 13.8453125 33.3125 15.4953125 33.3125 17.1953125 C31.6625 17.1953125 30.0125 17.1953125 28.3125 17.1953125 C28.3125 16.2053125 28.3125 15.2153125 28.3125 14.1953125 C27.796875 14.5253125 27.28125 14.8553125 26.75 15.1953125 C23.44030596 16.5531357 20.85609483 16.51745748 17.3125 16.1953125 C15.375 14.8828125 15.375 14.8828125 14.3125 13.1953125 C14.3125 12.2053125 14.3125 11.2153125 14.3125 10.1953125 C13.6525 10.1953125 12.9925 10.1953125 12.3125 10.1953125 C12.3125 12.1753125 12.3125 14.1553125 12.3125 16.1953125 C9.6725 16.1953125 7.0325 16.1953125 4.3125 16.1953125 C5.6325 15.5353125 6.9525 14.8753125 8.3125 14.1953125 C8.3125 13.5353125 8.3125 12.8753125 8.3125 12.1953125 C5.8375 11.2053125 5.8375 11.2053125 3.3125 10.1953125 C3.3125 9.5353125 3.3125 8.8753125 3.3125 8.1953125 C2.6525 8.1953125 1.9925 8.1953125 1.3125 8.1953125 C1.3125 10.8353125 1.3125 13.4753125 1.3125 16.1953125 C-1.1625 15.7003125 -1.1625 15.7003125 -3.6875 15.1953125 C-3.6875 14.2053125 -3.6875 13.2153125 -3.6875 12.1953125 C-4.3475 12.1953125 -5.0075 12.1953125 -5.6875 12.1953125 C-6.0175 13.8453125 -6.3475 15.4953125 -6.6875 17.1953125 C-8.625 16.8203125 -8.625 16.8203125 -10.6875 16.1953125 C-11.0175 15.5353125 -11.3475 14.8753125 -11.6875 14.1953125 C-12.0175 15.1853125 -12.3475 16.1753125 -12.6875 17.1953125 C-14.14542884 17.24930986 -15.60392712 17.28810427 -17.0625 17.3203125 C-18.28066406 17.35511719 -18.28066406 17.35511719 -19.5234375 17.390625 C-21.6875 17.1953125 -21.6875 17.1953125 -23.6875 15.1953125 C-25.90878555 15.17222653 -25.90878555 15.17222653 -28.3125 15.5703125 C-29.12976563 15.68117188 -29.94703125 15.79203125 -30.7890625 15.90625 C-31.41554688 16.00164062 -32.04203125 16.09703125 -32.6875 16.1953125 C-29.6875 14.1953125 -29.6875 14.1953125 -27.6875 14.1953125 C-27.6875 13.2053125 -27.6875 12.2153125 -27.6875 11.1953125 C-28.30625 11.0715625 -28.925 10.9478125 -29.5625 10.8203125 C-31.6875 10.1953125 -31.6875 10.1953125 -33.6875 8.1953125 C-33.13194444 3.63975694 -33.13194444 3.63975694 -31.6875 2.1953125 C-29.32649088 2.163096 -26.98029567 2.26345619 -24.62109375 2.35546875 C-21.57835096 2.30437766 -21.57835096 2.30437766 -18.35961914 1.19750977 C-12.31500628 -0.34760665 -6.19839238 -0.05121689 0 0 Z " fill="#E7E7E8" transform="translate(413.6875,279.8046875)"/>
<path d="M0 0 C0.66 0 1.32 0 2 0 C2 12.54 2 25.08 2 38 C-6.91 38 -15.82 38 -25 38 C-25 29.75 -25 21.5 -25 13 C-23.02 12.01 -21.04 11.02 -19 10 C-17.73790355 9.18510308 -16.48637053 8.3534239 -15.25 7.5 C-11.35652621 4.99221127 -7.47734765 3.78901934 -3.00390625 2.67578125 C-0.80448866 2.19616422 -0.80448866 2.19616422 0 0 Z " fill="#608ABF" transform="translate(158,224)"/>
<path d="M0 0 C0.33 0 0.66 0 1 0 C1 24.75 1 49.5 1 75 C0.67 74.34 0.34 73.68 0 73 C-55.935 73.495 -55.935 73.495 -113 74 C-112.34 74.33 -111.68 74.66 -111 75 C-111 79.62 -111 84.24 -111 89 C-115 87 -115 87 -117 84 C-117.33 85.98 -117.66 87.96 -118 90 C-119.32 90 -120.64 90 -122 90 C-122.33 88.02 -122.66 86.04 -123 84 C-123.66 84.66 -124.32 85.32 -125 86 C-125.09796875 85.30132812 -125.1959375 84.60265625 -125.296875 83.8828125 C-125.52117187 82.51769531 -125.52117187 82.51769531 -125.75 81.125 C-125.95882812 79.76761719 -125.95882812 79.76761719 -126.171875 78.3828125 C-126.75982705 75.89641442 -126.75982705 75.89641442 -128.76493359 74.8762579 C-131.18027107 73.92932472 -133.0016277 73.69205301 -135.58918762 73.59706116 C-136.54149356 73.55996001 -137.4937995 73.52285887 -138.47496319 73.48463345 C-140.07834152 73.44015371 -140.07834152 73.44015371 -141.71411133 73.39477539 C-143.46469581 73.33881116 -143.46469581 73.33881116 -145.25064564 73.28171635 C-164.54103046 72.73814083 -183.84631153 72.76709987 -203.14274573 72.69667697 C-208.9562468 72.67451176 -214.76972428 72.64727536 -220.58320618 72.62062073 C-231.54707745 72.57109984 -242.51096209 72.52601388 -253.47485906 72.48259836 C-265.97586759 72.43287439 -278.47685242 72.37808896 -290.97783792 72.32291877 C-316.65186975 72.20972371 -342.3259244 72.10275355 -368 72 C-368 71.67 -368 71.34 -368 71 C-246.56 71 -125.12 71 0 71 C0 47.57 0 24.14 0 0 Z " fill="#D3E7E1" transform="translate(480,207)"/>
<path d="M0 0 C1.92875977 0.00966797 1.92875977 0.00966797 3.89648438 0.01953125 C5.23437779 0.03623649 6.57226842 0.05316631 7.91015625 0.0703125 C9.27538408 0.08035928 10.64061905 0.08948214 12.00585938 0.09765625 C15.32830824 0.12113645 18.65038946 0.15397891 21.97265625 0.1953125 C22.46765625 2.1753125 22.46765625 2.1753125 22.97265625 4.1953125 C23.30265625 3.8653125 23.63265625 3.5353125 23.97265625 3.1953125 C25.62265625 3.1953125 27.27265625 3.1953125 28.97265625 3.1953125 C28.97265625 7.8153125 28.97265625 12.4353125 28.97265625 17.1953125 C27.32265625 16.8653125 25.67265625 16.5353125 23.97265625 16.1953125 C23.97265625 15.5353125 23.97265625 14.8753125 23.97265625 14.1953125 C23.43640625 14.6903125 22.90015625 15.1853125 22.34765625 15.6953125 C19.3790718 17.57020794 17.41953198 17.43032675 13.97265625 17.1953125 C13.97265625 15.8753125 13.97265625 14.5553125 13.97265625 13.1953125 C14.63265625 13.1953125 15.29265625 13.1953125 15.97265625 13.1953125 C15.97265625 12.5353125 15.97265625 11.8753125 15.97265625 11.1953125 C12.45718047 13.13368515 12.45718047 13.13368515 9.59765625 15.8828125 C6.9550563 18.01722015 4.23050274 17.37971891 0.97265625 17.1953125 C0.64265625 16.2053125 0.31265625 15.2153125 -0.02734375 14.1953125 C-1.40248916 12.4865479 -1.40248916 12.4865479 -3.02734375 11.1953125 C-3.68734375 11.1953125 -4.34734375 11.1953125 -5.02734375 11.1953125 C-5.02734375 11.8553125 -5.02734375 12.5153125 -5.02734375 13.1953125 C-6.34734375 13.1953125 -7.66734375 13.1953125 -9.02734375 13.1953125 C-9.35734375 14.5153125 -9.68734375 15.8353125 -10.02734375 17.1953125 C-11.34734375 16.8653125 -12.66734375 16.5353125 -14.02734375 16.1953125 C-14.02734375 11.5753125 -14.02734375 6.9553125 -14.02734375 2.1953125 C-9.17568282 0.62956151 -5.14930654 -0.04577161 0 0 Z " fill="#F0EEEF" transform="translate(291.02734375,279.8046875)"/>
<path d="M0 0 C10.89 0 21.78 0 33 0 C33.02290553 6.10559655 33.04283367 12.21104516 33.05493164 18.31665039 C33.05997288 20.39543156 33.06680574 22.47420916 33.07543945 24.55297852 C33.08751422 27.53402586 33.09323024 30.51502649 33.09765625 33.49609375 C33.10281754 34.43150497 33.10797882 35.3669162 33.11329651 36.33067322 C33.11337204 37.19149002 33.11344757 38.05230682 33.11352539 38.93920898 C33.115746 39.70087875 33.11796661 40.46254852 33.12025452 41.24729919 C33 43 33 43 32 44 C29.62458949 44.08838648 27.2776642 44.11537523 24.90234375 44.09765625 C23.60546631 44.09515869 22.30858887 44.09266113 20.97241211 44.09008789 C19.31089111 44.08098389 17.64937012 44.07187988 15.9375 44.0625 C10.678125 44.041875 5.41875 44.02125 0 44 C0 29.48 0 14.96 0 0 Z M28 3 C27.67 3.66 27.34 4.32 27 5 C25.1881833 5.64707739 23.34881457 6.2177655 21.5 6.75 C16.28294079 8.39781966 12.23319712 10.49885873 7.83984375 13.73046875 C6 15 6 15 3 16 C3 24.25 3 32.5 3 41 C11.91 41 20.82 41 30 41 C30 28.46 30 15.92 30 3 C29.34 3 28.68 3 28 3 Z " fill="#B2C9E8" transform="translate(130,221)"/>
<path d="M0 0 C12.87 0 25.74 0 39 0 C39 0.66 39 1.32 39 2 C41.475 2.495 41.475 2.495 44 3 C44 3.66 44 4.32 44 5 C42.68 5 41.36 5 40 5 C40 5.99 40 6.98 40 8 C41.32 8.66 42.64 9.32 44 10 C44 12.31 44 14.62 44 17 C42.04174127 17.02694851 40.08337774 17.04637218 38.125 17.0625 C36.48917969 17.07990234 36.48917969 17.07990234 34.8203125 17.09765625 C32 17 32 17 30 16 C29.67 15.01 29.34 14.02 29 13 C28.34 12.67 27.68 12.34 27 12 C27 13.65 27 15.3 27 17 C25.35 17 23.7 17 22 17 C22 16.01 22 15.02 22 14 C21.484375 14.33 20.96875 14.66 20.4375 15 C17.12780596 16.3578232 14.54359483 16.32214498 11 16 C9.0625 14.6875 9.0625 14.6875 8 13 C8 12.01 8 11.02 8 10 C5.69 9.34 3.38 8.68 1 8 C1 7.34 1 6.68 1 6 C2.32 5.67 3.64 5.34 5 5 C4.67 4.01 4.34 3.02 4 2 C2.68 1.34 1.36 0.68 0 0 Z " fill="#FAF8F9" transform="translate(420,280)"/>
<path d="M0 0 C8.36015988 -1.05973858 8.36015988 -1.05973858 11.9765625 1.27734375 C13.78631596 3.09949278 15.39819104 4.99296014 17 7 C18.12154376 8.2738846 19.24661032 9.54467545 20.375 10.8125 C21.22578125 11.8025 21.22578125 11.8025 22.09375 12.8125 C25.05126043 16.20636443 28.12082524 19.49824691 31.1796875 22.80078125 C33 25 33 25 34 28 C34.66 28 35.32 28 36 28 C36 19.75 36 11.5 36 3 C33.525 2.505 33.525 2.505 31 2 C31 1.34 31 0.68 31 0 C35.29 0 39.58 0 44 0 C43.67 0.99 43.34 1.98 43 3 C41.68 3 40.36 3 39 3 C39 15.21 39 27.42 39 40 C34.31191625 38.82797906 33.7640897 37.4359964 31.109375 33.65234375 C27.7714167 29.45517026 23.89126891 25.80954267 20.02587891 22.10083008 C16.44152625 18.61705124 13.70197517 15.19615499 11 11 C10.34 10.67 9.68 10.34 9 10 C9.33 18.58 9.66 27.16 10 36 C11.32 36.33 12.64 36.66 14 37 C14 37.66 14 38.32 14 39 C9.71 39 5.42 39 1 39 C1 38.34 1 37.68 1 37 C2.32 37 3.64 37 5 37 C5.12361526 32.49774209 5.21434063 27.99647151 5.2746582 23.49291992 C5.29980078 21.96116939 5.33392047 20.42953883 5.37719727 18.89819336 C5.43786942 16.69615116 5.46620891 14.49569426 5.48828125 12.29296875 C5.51408768 11.60849167 5.5398941 10.92401459 5.56648254 10.21879578 C5.62314137 8.04231047 5.62314137 8.04231047 5 5 C2.5710297 3.12501771 2.5710297 3.12501771 0 2 C0 1.34 0 0.68 0 0 Z " fill="#D3F0E3" transform="translate(359,225)"/>
<path d="M0 0 C1.9296875 0.1171875 1.9296875 0.1171875 4 1 C5.1953125 3.2578125 5.1953125 3.2578125 6.125 6.125 C6.45628906 7.12660156 6.78757813 8.12820312 7.12890625 9.16015625 C8.37180523 13.21211839 9.53114453 17.27802174 10.64453125 21.3671875 C12.23334036 26.95775645 14.06960179 31.96337808 17 37 C17.99 37.33 18.98 37.66 20 38 C20 38.66 20 39.32 20 40 C15.05 40 10.1 40 5 40 C5.33 39.34 5.66 38.68 6 38 C6.66 38 7.32 38 8 38 C7.505 36.14375 7.505 36.14375 7 34.25 C6.20108841 31.25408155 6 29.19892281 6 26 C3.72854654 26.03300659 1.45759874 26.10240005 -0.8125 26.1875 C-2.70935547 26.23970703 -2.70935547 26.23970703 -4.64453125 26.29296875 C-8.1320735 26.66042835 -8.1320735 26.66042835 -9.90625 29.34375 C-11.09797499 32.23793927 -11.63920806 34.89718933 -12 38 C-11.01 38 -10.02 38 -9 38 C-9 38.66 -9 39.32 -9 40 C-13.29 40 -17.58 40 -22 40 C-22 39.34 -22 38.68 -22 38 C-20.02 37.34 -18.04 36.68 -16 36 C-16 34.68 -16 33.36 -16 32 C-15.34 32 -14.68 32 -14 32 C-13.91363281 31.17113281 -13.82726562 30.34226563 -13.73828125 29.48828125 C-12.84722208 25.27814453 -11.18324695 21.96964981 -9.1875 18.1875 C-8.45937821 16.77423977 -7.73280403 15.36018108 -7.0078125 13.9453125 C-6.66008789 13.26887695 -6.31236328 12.59244141 -5.95410156 11.89550781 C-4.74109067 9.48562639 -3.63666092 7.03704849 -2.5625 4.5625 C-1 1 -1 1 0 0 Z " fill="#E5F6EF" transform="translate(214,224)"/>
<path d="M0 0 C1.13115234 -0.00483398 1.13115234 -0.00483398 2.28515625 -0.00976562 C6.11655972 0.02766372 7.99522036 0.1426469 11.25 2.3125 C11.54296875 4.4765625 11.54296875 4.4765625 11.4375 6.9375 C11.39689453 8.16339844 11.39689453 8.16339844 11.35546875 9.4140625 C11.32066406 10.04054687 11.28585937 10.66703125 11.25 11.3125 C10.26 11.3125 9.27 11.3125 8.25 11.3125 C7.79625 10.343125 7.3425 9.37375 6.875 8.375 C5.59213779 5.24170418 5.59213779 5.24170418 3.25 4.3125 C-3.54694438 3.96689266 -9.25646556 4.14420918 -14.625 8.8125 C-18.48922271 13.35864436 -18.07012998 17.14087733 -18.05078125 22.96484375 C-17.63470129 27.59575967 -16.13372102 30.36446206 -13.75 34.3125 C-13.75 34.9725 -13.75 35.6325 -13.75 36.3125 C-3.4456052 38.26317483 -3.4456052 38.26317483 6.25 35.5625 C8.06419017 33.52153605 9.25604367 31.84257066 10.25 29.3125 C10.91 29.3125 11.57 29.3125 12.25 29.3125 C12.13590407 30.77172693 12.00834456 32.22990598 11.875 33.6875 C11.80539062 34.49960937 11.73578125 35.31171875 11.6640625 36.1484375 C11.25 38.3125 11.25 38.3125 9.25 40.3125 C1.24407795 42.44650639 -8.98128953 42.30478812 -16.75 39.3125 C-18.94228648 37.47770867 -20.12184459 35.73006409 -21.75 33.3125 C-22.3275 32.77625 -22.905 32.24 -23.5 31.6875 C-26.28312005 28.62606794 -25.94045074 24.31021329 -26 20.375 C-26.02578125 19.35535156 -26.0515625 18.33570313 -26.078125 17.28515625 C-25.70172049 13.87511066 -24.69605074 12.10404366 -22.75 9.3125 C-22.09 8.3225 -21.43 7.3325 -20.75 6.3125 C-13.93346169 1.6383023 -8.13209113 -0.17740164 0 0 Z " fill="#D0EFE0" transform="translate(262.75,223.6875)"/>
<path d="M0 0 C9.57 0 19.14 0 29 0 C29 2.97 29 5.94 29 9 C27.68 9 26.36 9 25 9 C24.5359375 7.7934375 24.5359375 7.7934375 24.0625 6.5625 C23.23664655 4.10919595 23.23664655 4.10919595 22 3 C20.15108054 2.76636119 18.29511969 2.58696365 16.4375 2.4375 C14.643125 2.293125 12.84875 2.14875 11 2 C11 6.95 11 11.9 11 17 C15.62 17 20.24 17 25 17 C25 18.32 25 19.64 25 21 C20.38 21 15.76 21 11 21 C11.33 25.95 11.66 30.9 12 36 C16.29 36 20.58 36 25 36 C25.66 34.68 26.32 33.36 27 32 C27.33 31.34 27.66 30.68 28 30 C28.99 30 29.98 30 31 30 C30.34 32.97 29.68 35.94 29 39 C19.1 39 9.2 39 -1 39 C-1 38.34 -1 37.68 -1 37 C0.65 36.34 2.3 35.68 4 35 C4 24.44 4 13.88 4 3 C2.68 2.67 1.36 2.34 0 2 C0 1.34 0 0.68 0 0 Z " fill="#D8F2E7" transform="translate(325,225)"/>
<path d="M0 0 C0.80244141 -0.00773438 1.60488281 -0.01546875 2.43164062 -0.0234375 C3.20830078 -0.02085937 3.98496094 -0.01828125 4.78515625 -0.015625 C5.8371521 -0.01224121 5.8371521 -0.01224121 6.91040039 -0.00878906 C8.9375 0.25 8.9375 0.25 12.9375 2.25 C12.9375 5.22 12.9375 8.19 12.9375 11.25 C11.9475 11.25 10.9575 11.25 9.9375 11.25 C9.4425 8.28 9.4425 8.28 8.9375 5.25 C1.79475349 2.8690845 -4.12028989 4.31681798 -10.86328125 6.984375 C-13.48953867 8.49575582 -14.62601606 9.57312358 -16.0625 12.25 C-16.5380832 15.58268897 -16.5380832 15.58268897 -16.4375 19.1875 C-16.44523437 20.39277344 -16.45296875 21.59804687 -16.4609375 22.83984375 C-16.038407 26.45620776 -15.07377319 28.27565684 -13.0625 31.25 C-13.0625 31.91 -13.0625 32.57 -13.0625 33.25 C-12.4025 33.25 -11.7425 33.25 -11.0625 33.25 C-10.51078125 33.90484375 -9.9590625 34.5596875 -9.390625 35.234375 C-6.1594325 38.03185039 -4.01520525 37.65565575 0.1875 37.5 C1.45078125 37.46390625 2.7140625 37.4278125 4.015625 37.390625 C5.46195312 37.32101562 5.46195312 37.32101562 6.9375 37.25 C7.2365625 36.63640625 7.535625 36.0228125 7.84375 35.390625 C9.01019973 33.10771624 10.26904615 31.19652949 11.9375 29.25 C12.5975 29.25 13.2575 29.25 13.9375 29.25 C13.82340407 30.70922693 13.69584456 32.16740598 13.5625 33.625 C13.49289062 34.43710937 13.42328125 35.24921875 13.3515625 36.0859375 C12.9375 38.25 12.9375 38.25 10.9375 40.25 C2.93524437 42.05251669 -7.53065756 42.78535461 -15.0625 39.25 C-19.50592505 35.14758199 -22.7988834 30.93827623 -23.3984375 24.82421875 C-23.53049946 11.6840534 -23.53049946 11.6840534 -19.0625 6.25 C-13.15060205 0.6412763 -7.81843168 -0.07572331 0 0 Z " fill="#EBF8F2" transform="translate(305.0625,223.75)"/>
<path d="M0 0 C11.88 0 23.76 0 36 0 C36 2.97 36 5.94 36 9 C35.01 9 34.02 9 33 9 C32.505 6.03 32.505 6.03 32 3 C26.555 2.505 26.555 2.505 21 2 C21.33 13.22 21.66 24.44 22 36 C23.32 36.33 24.64 36.66 26 37 C26 37.66 26 38.32 26 39 C20.72 39 15.44 39 10 39 C10 38.34 10 37.68 10 37 C11.32 37 12.64 37 14 37 C14.33 25.45 14.66 13.9 15 2 C11.37 2.33 7.74 2.66 4 3 C3.34 4.98 2.68 6.96 2 9 C1.34 9 0.68 9 0 9 C0 6.03 0 3.06 0 0 Z " fill="#D8F5E9" transform="translate(406,225)"/>
<path d="M0 0 C3.22899426 -0.0875127 6.45768116 -0.14056146 9.6875 -0.1875 C11.05551758 -0.22520508 11.05551758 -0.22520508 12.45117188 -0.26367188 C21.00895523 -0.35702951 21.00895523 -0.35702951 25 3 C26.5635348 6.12706959 26.39958487 9.57982443 26 13 C25.01 14.485 25.01 14.485 24 16 C18.13004484 16.64035874 18.13004484 16.64035874 15.125 14.9375 C13.46514955 12.07886867 13.30684971 9.25260697 13 6 C12.90912109 7.06541016 12.90912109 7.06541016 12.81640625 8.15234375 C12.73261719 9.07144531 12.64882813 9.99054688 12.5625 10.9375 C12.48128906 11.85402344 12.40007812 12.77054687 12.31640625 13.71484375 C12 16 12 16 11 17 C9.35 17 7.7 17 6 17 C5.67 13.7 5.34 10.4 5 7 C3.68 6.67 2.36 6.34 1 6 C1 9.3 1 12.6 1 16 C0.01 16 -0.98 16 -2 16 C-2 12.37 -2 8.74 -2 5 C-3.32 5 -4.64 5 -6 5 C-6 4.01 -6 3.02 -6 2 C-4.02 2 -2.04 2 0 2 C0 1.34 0 0.68 0 0 Z " fill="#E7E5E7" transform="translate(329,280)"/>
<path d="M0 0 C1.02770508 -0.0309375 1.02770508 -0.0309375 2.07617188 -0.0625 C4.06640625 -0.078125 4.06640625 -0.078125 7.4375 0.25 C9.63844963 3.55142444 9.64160344 4.44369955 9.5 8.25 C9.39273118 11.3841151 9.43203557 13.23360672 10.4375 16.25 C7.4375 16.25 7.4375 16.25 5.75 14.75 C5.316875 14.255 4.88375 13.76 4.4375 13.25 C4.4375 14.57 4.4375 15.89 4.4375 17.25 C2.4575 17.25 0.4775 17.25 -1.5625 17.25 C-1.5625 16.26 -1.5625 15.27 -1.5625 14.25 C-4.68035113 14.89644661 -4.68035113 14.89644661 -5.5625 17.25 C-7.8725 17.25 -10.1825 17.25 -12.5625 17.25 C-15.04473187 13.52665219 -15.29985934 9.57643371 -14.5625 5.25 C-10.65813431 -0.00069868 -6.11518346 0.04628332 0 0 Z " fill="#F0F0F1" transform="translate(163.5625,279.75)"/>
<path d="M0 0 C1.40765625 0.00580078 1.40765625 0.00580078 2.84375 0.01171875 C5.52087334 0.3148636 7.19965635 0.95073996 9.5 2.3125 C9.17 3.6325 8.84 4.9525 8.5 6.3125 C7.51 6.3125 6.52 6.3125 5.5 6.3125 C5.5 7.3025 5.5 8.2925 5.5 9.3125 C6.82 9.9725 8.14 10.6325 9.5 11.3125 C9.5 12.9625 9.5 14.6125 9.5 16.3125 C6.54335481 17.7908226 3.75770263 17.37282783 0.5 17.3125 C0.5 16.3225 0.5 15.3325 0.5 14.3125 C-0.03625 14.6425 -0.5725 14.9725 -1.125 15.3125 C-4.0391061 16.53949204 -6.36867708 16.45483286 -9.5 16.3125 C-6.5 14.3125 -6.5 14.3125 -4.5 14.3125 C-4.83 13.6525 -5.16 12.9925 -5.5 12.3125 C-6.49 11.9825 -7.48 11.6525 -8.5 11.3125 C-10.5 8.3125 -10.5 8.3125 -10.375 5.8125 C-8.58886992 0.70927119 -5.05296672 -0.09023155 0 0 Z " fill="#ECEAEC" transform="translate(257.5,279.6875)"/>
<path d="M0 0 C8.57142857 -0.28571429 8.57142857 -0.28571429 12 2 C12.66 1.34 13.32 0.68 14 0 C17.125 -0.125 17.125 -0.125 20 0 C20 0.66 20 1.32 20 2 C18.68 2 17.36 2 16 2 C16 2.99 16 3.98 16 5 C17.32 5.66 18.64 6.32 20 7 C20 9.31 20 11.62 20 14 C18.04174127 14.02694851 16.08337774 14.04637218 14.125 14.0625 C13.03445313 14.07410156 11.94390625 14.08570313 10.8203125 14.09765625 C8 14 8 14 6 13 C5.67 12.01 5.34 11.02 5 10 C4.34 9.67 3.68 9.34 3 9 C3 10.65 3 12.3 3 14 C2.01 14 1.02 14 0 14 C0 9.38 0 4.76 0 0 Z " fill="#ECEAED" transform="translate(444,283)"/>
<path d="M0 0 C1.32 0 2.64 0 4 0 C4 3.63 4 7.26 4 11 C5.65 11 7.3 11 9 11 C9.33 7.37 9.66 3.74 10 0 C11.423125 -0.061875 12.84625 -0.12375 14.3125 -0.1875 C15.51326172 -0.23970703 15.51326172 -0.23970703 16.73828125 -0.29296875 C19 0 19 0 20.7734375 1.296875 C22.79543508 4.10448948 22.29323224 6.65715247 22 10 C21.34 11.32 20.68 12.64 20 14 C13.4 14 6.8 14 0 14 C0 9.38 0 4.76 0 0 Z " fill="#BCBBBD" transform="translate(177,283)"/>
<path d="M0 0 C2.12472576 -0.05386629 4.24983652 -0.09273071 6.375 -0.125 C7.55835938 -0.14820313 8.74171875 -0.17140625 9.9609375 -0.1953125 C13 0 13 0 15 2 C13.02 2.66 11.04 3.32 9 4 C9.33 6.31 9.66 8.62 10 11 C11.32 11.33 12.64 11.66 14 12 C14 12.66 14 13.32 14 14 C13.01 14.495 13.01 14.495 12 15 C13.32 15 14.64 15 16 15 C16 15.66 16 16.32 16 17 C11.71 17 7.42 17 3 17 C3 16.01 3 15.02 3 14 C1.35 14 -0.3 14 -2 14 C-2 14.66 -2 15.32 -2 16 C-2.99 16 -3.98 16 -5 16 C-4.54287762 14.45797384 -4.08423653 12.91639786 -3.625 11.375 C-3.36976563 10.51648438 -3.11453125 9.65796875 -2.8515625 8.7734375 C-1.94843312 5.83205281 -0.98322773 2.91548396 0 0 Z " fill="#EFEEF0" transform="translate(239,280)"/>
<path d="M0 0 C1.91796875 0.10546875 1.91796875 0.10546875 4 1 C5.30078125 3.36328125 5.30078125 3.36328125 6.3125 6.3125 C6.65925781 7.27800781 7.00601563 8.24351562 7.36328125 9.23828125 C8.00223885 12.00971084 7.96792149 13.37100033 7 16 C6.67 14.68 6.34 13.36 6 12 C5.34 12 4.68 12 4 12 C3.67 11.01 3.34 10.02 3 9 C2.34 8.67 1.68 8.34 1 8 C1.2165625 8.81984375 1.433125 9.6396875 1.65625 10.484375 C1.9346875 11.56203125 2.213125 12.6396875 2.5 13.75 C2.7784375 14.81734375 3.056875 15.8846875 3.34375 16.984375 C4 20 4 20 4 24 C0.37 24 -3.26 24 -7 24 C-7 22.68 -7 21.36 -7 20 C-7.66 20 -8.32 20 -9 20 C-7.71089325 15.70297749 -5.9948785 11.86808207 -3.94921875 7.8984375 C-2.82537799 5.65075598 -1.92056443 3.3368174 -1 1 C-0.67 0.67 -0.34 0.34 0 0 Z " fill="#BDE5D2" transform="translate(214,224)"/>
<path d="M0 0 C2.97 0 5.94 0 9 0 C10.38226016 2.76452033 10.09525387 5.0461363 10.0625 8.125 C10.05347656 9.22070312 10.04445312 10.31640625 10.03515625 11.4453125 C10.02355469 12.28835938 10.01195312 13.13140625 10 14 C12.31 14.33 14.62 14.66 17 15 C17 15.66 17 16.32 17 17 C15.35425434 17.02688151 13.70838587 17.04634123 12.0625 17.0625 C11.14597656 17.07410156 10.22945312 17.08570313 9.28515625 17.09765625 C7 17 7 17 6 16 C5.54234333 13.01110641 5.29679049 10.01030352 5 7 C2.03 7 -0.94 7 -4 7 C-3.67 8.65 -3.34 10.3 -3 12 C-0.69 12.33 1.62 12.66 4 13 C3.67 14.32 3.34 15.64 3 17 C-3.40096618 17.48309179 -3.40096618 17.48309179 -5.9375 15.4375 C-7.41282332 12.05293473 -7.45674603 9.65396822 -7 6 C-5.1875 3.5625 -5.1875 3.5625 -3 2 C-2.01 2 -1.02 2 0 2 C0 1.34 0 0.68 0 0 Z " fill="#EAE8EA" transform="translate(216,280)"/>
<path d="M0 0 C0.66 1.32 1.32 2.64 2 4 C2.33 3.67 2.66 3.34 3 3 C4.65 3 6.3 3 8 3 C8 7.62 8 12.24 8 17 C6.35 16.67 4.7 16.34 3 16 C3 15.34 3 14.68 3 14 C2.46375 14.495 1.9275 14.99 1.375 15.5 C-1.59358445 17.37489544 -3.55312427 17.23501425 -7 17 C-7 16.34 -7 15.68 -7 15 C-6.360625 14.896875 -5.72125 14.79375 -5.0625 14.6875 C-4.0415625 14.3471875 -4.0415625 14.3471875 -3 14 C-2.67 13.01 -2.34 12.02 -2 11 C-4.475 10.01 -4.475 10.01 -7 9 C-7 6.69 -7 4.38 -7 2 C-4.69 1.34 -2.38 0.68 0 0 Z " fill="#ECEBEC" transform="translate(312,280)"/>
<path d="M0 0 C1.12329712 0.07069702 1.12329712 0.07069702 2.26928711 0.14282227 C3.07817383 0.19116211 3.88706055 0.23950195 4.72045898 0.28930664 C5.99566406 0.37341797 5.99566406 0.37341797 7.29663086 0.45922852 C8.57763672 0.53753906 8.57763672 0.53753906 9.88452148 0.61743164 C12.00135081 0.74751612 14.1177833 0.88402822 16.23413086 1.02172852 C16.23413086 1.68172852 16.23413086 2.34172852 16.23413086 3.02172852 C14.25413086 3.02172852 12.27413086 3.02172852 10.23413086 3.02172852 C10.56413086 4.01172852 10.89413086 5.00172852 11.23413086 6.02172852 C13.24921444 6.75496648 13.24921444 6.75496648 15.23413086 7.02172852 C15.23413086 7.68172852 15.23413086 8.34172852 15.23413086 9.02172852 C14.24413086 9.35172852 13.25413086 9.68172852 12.23413086 10.02172852 C11.90413086 11.01172852 11.57413086 12.00172852 11.23413086 13.02172852 C12.88413086 13.02172852 14.53413086 13.02172852 16.23413086 13.02172852 C16.23413086 13.35172852 16.23413086 13.68172852 16.23413086 14.02172852 C9.90079753 14.02172852 3.56746419 14.02172852 -2.76586914 14.02172852 C0.23413086 12.02172852 0.23413086 12.02172852 2.23413086 12.02172852 C2.23413086 11.03172852 2.23413086 10.04172852 2.23413086 9.02172852 C1.61538086 8.89797852 0.99663086 8.77422852 0.35913086 8.64672852 C-1.76586914 8.02172852 -1.76586914 8.02172852 -3.76586914 6.02172852 C-3.03606785 0.03735795 -3.03606785 0.03735795 0 0 Z " fill="#E7E5E7" transform="translate(383.765869140625,281.978271484375)"/>
<path d="M0 0 C1.93166016 0.01740234 1.93166016 0.01740234 3.90234375 0.03515625 C5.19269531 0.04417969 6.48304688 0.05320312 7.8125 0.0625 C8.81152344 0.07410156 9.81054688 0.08570313 10.83984375 0.09765625 C10.38746614 2.01573734 9.92769912 3.93207658 9.46484375 5.84765625 C9.20960938 6.915 8.954375 7.98234375 8.69140625 9.08203125 C7.96450834 11.65618347 7.13722135 13.77365811 5.83984375 16.09765625 C6.82984375 16.42765625 7.81984375 16.75765625 8.83984375 17.09765625 C7.51984375 17.09765625 6.19984375 17.09765625 4.83984375 17.09765625 C4.83984375 16.43765625 4.83984375 15.77765625 4.83984375 15.09765625 C2.52984375 14.76765625 0.21984375 14.43765625 -2.16015625 14.09765625 C-2.16015625 10.13765625 -2.16015625 6.17765625 -2.16015625 2.09765625 C-2.82015625 1.76765625 -3.48015625 1.43765625 -4.16015625 1.09765625 C-3.16015625 0.09765625 -3.16015625 0.09765625 0 0 Z " fill="#F7F7F7" transform="translate(228.16015625,279.90234375)"/>
<path d="M0 0 C0.66 0 1.32 0 2 0 C2.33 8.25 2.66 16.5 3 25 C3.33 25 3.66 25 4 25 C4.33 16.75 4.66 8.5 5 0 C5.33 0 5.66 0 6 0 C6.33 10.89 6.66 21.78 7 33 C8.32 33.33 9.64 33.66 11 34 C11 34.66 11 35.32 11 36 C5.72 36 0.44 36 -5 36 C-5 35.34 -5 34.68 -5 34 C-3.68 34 -2.36 34 -1 34 C-0.67 22.78 -0.34 11.56 0 0 Z " fill="#BFECD7" transform="translate(421,228)"/>
<path d="M0 0 C0 0.99 0 1.98 0 3 C-3.3 2.67 -6.6 2.34 -10 2 C-10 2.66 -10 3.32 -10 4 C-9.01 4.33 -8.02 4.66 -7 5 C-9.475 4.505 -9.475 4.505 -12 4 C-12 3.01 -12 2.02 -12 1 C-12.66 1 -13.32 1 -14 1 C-14 4.63 -14 8.26 -14 12 C-15.32 11.67 -16.64 11.34 -18 11 C-17.01 11 -16.02 11 -15 11 C-15 8.03 -15 5.06 -15 2 C-24.57 2 -34.14 2 -44 2 C-44 2.66 -44 3.32 -44 4 C-42.35 4.33 -40.7 4.66 -39 5 C-39 15.56 -39 26.12 -39 37 C-39.99 37.495 -39.99 37.495 -41 38 C-41 27.11 -41 16.22 -41 5 C-42.32 5 -43.64 5 -45 5 C-45 3.68 -45 2.36 -45 1 C-41.00231472 0.85413589 -37.00451542 0.71193562 -33.0065918 0.57275391 C-30.9984704 0.50214386 -28.99044398 0.42884832 -26.98242188 0.35546875 C-17.98108476 0.04431142 -9.00612834 -0.05818226 0 0 Z " fill="#46A971" transform="translate(369,223)"/>
<path d="M0 0 C7.59 0 15.18 0 23 0 C18.50301205 4.49698795 18.50301205 4.49698795 14.6875 6.0625 C13.90503906 6.38863281 13.12257812 6.71476563 12.31640625 7.05078125 C11.55199219 7.36402344 10.78757813 7.67726562 10 8 C8.70806342 8.58273531 7.41636791 9.16600559 6.125 9.75 C3 11 3 11 0 11 C0 7.37 0 3.74 0 0 Z " fill="#F7F9FD" transform="translate(134,224)"/>
<path d="M0 0 C0.66 0 1.32 0 2 0 C1.88590407 1.45922693 1.75834456 2.91740598 1.625 4.375 C1.55539062 5.18710937 1.48578125 5.99921875 1.4140625 6.8359375 C1 9 1 9 -1 11 C-9.15472748 12.83686114 -19.23480252 13.46955632 -27 10 C-29.4375 7.375 -29.4375 7.375 -31 5 C-29.68 5 -28.36 5 -27 5 C-26.67 3.68 -26.34 2.36 -26 1 C-25.67 1.99 -25.34 2.98 -25 4 C-24.34 4 -23.68 4 -23 4 C-22.44828125 4.65484375 -21.8965625 5.3096875 -21.328125 5.984375 C-18.0969325 8.78185039 -15.95270525 8.40565575 -11.75 8.25 C-10.48671875 8.21390625 -9.2234375 8.1778125 -7.921875 8.140625 C-6.95765625 8.09421875 -5.9934375 8.0478125 -5 8 C-4.7009375 7.38640625 -4.401875 6.7728125 -4.09375 6.140625 C-2.92730027 3.85771624 -1.66845385 1.94652949 0 0 Z " fill="#AFE4CA" transform="translate(317,253)"/>
<path d="M0 0 C3.63405527 -0.46251613 5.95597413 -0.75039359 9 1.4375 C10.50154924 5.28521992 10.06894568 9.0376675 9 13 C6.04335481 14.4783226 3.25770263 14.06032783 0 14 C-2.33046701 10.3586453 -2.30891093 7.2475253 -2 3 C-1.34 2.01 -0.68 1.02 0 0 Z " fill="#9A989A" transform="translate(292,283)"/>
<path d="M0 0 C3 0.4375 3 0.4375 4.875 1.4375 C6.64629177 4.58646314 6.54794453 7.90788329 6 11.4375 C5.01 12.9225 5.01 12.9225 4 14.4375 C0.60528797 14.80783222 -1.88907484 15.04671702 -4.9375 13.375 C-6.61903731 10.30866726 -6.36051184 7.86236249 -6 4.4375 C-4.4369108 1.05080673 -3.7186535 0.54230363 0 0 Z " fill="#EBE9EB" transform="translate(434,281.5625)"/>
<path d="M0 0 C1.875 1.125 1.875 1.125 3 3 C3.44836712 6.43748124 3.13920635 8.62332399 1.9375 11.875 C0 14 0 14 -3.6875 14.3125 C-4.780625 14.209375 -5.87375 14.10625 -7 14 C-9.61838609 10.07242087 -9.36792655 6.56228926 -9 2 C-5.53076119 -0.31282587 -4.07794425 -0.42478586 0 0 Z " fill="#8F8F91" transform="translate(158,283)"/>
<path d="M0 0 C0.99 0.66 1.98 1.32 3 2 C3.56737589 9.14893617 3.56737589 9.14893617 1 13 C-2.39471203 13.37033222 -4.88907484 13.60921702 -7.9375 11.9375 C-9.6140629 8.88023824 -9.36528977 6.4093712 -9 3 C-6.83464775 -0.72921777 -4.01926187 -0.41867311 0 0 Z " fill="#9B999B" transform="translate(352,283)"/>
<path d="M0 0 C0.99 0 1.98 0 3 0 C3.33 0.99 3.66 1.98 4 3 C4.99 2.01 5.98 1.02 7 0 C7.99 0.33 8.98 0.66 10 1 C10 3.31 10 5.62 10 8 C10.66 8 11.32 8 12 8 C12.33 5.36 12.66 2.72 13 0 C13.99 0 14.98 0 16 0 C15.45144652 4.571279 14.58255197 8.67435795 13 13 C11.68 13 10.36 13 9 13 C9 12.01 9 11.02 9 10 C8.38125 10.7425 8.38125 10.7425 7.75 11.5 C6 13 6 13 2 13 C1.34 8.71 0.68 4.42 0 0 Z " fill="#D3D3D5" transform="translate(130,283)"/>
<path d="M0 0 C9 0 9 0 11 1 C10.67 1.66 10.34 2.32 10 3 C7.36 2.67 4.72 2.34 2 2 C2 12.23 2 22.46 2 33 C3.65 33 5.3 33 7 33 C6.67 34.65 6.34 36.3 6 38 C-0.27 38 -6.54 38 -13 38 C-13 36.68 -13 35.36 -13 34 C-11.02 34 -9.04 34 -7 34 C-8.98 34.495 -8.98 34.495 -11 35 C-11 35.66 -11 36.32 -11 37 C-5.72 37 -0.44 37 5 37 C5 36.34 5 35.68 5 35 C3.35 34.67 1.7 34.34 0 34 C0 22.78 0 11.56 0 0 Z " fill="#3CAC70" transform="translate(427,227)"/>
<path d="M0 0 C0.99 0 1.98 0 3 0 C3 1.32 3 2.64 3 4 C6.63 4 10.26 4 14 4 C14.33 4.66 14.66 5.32 15 6 C14.09636719 6.01417969 13.19273437 6.02835938 12.26171875 6.04296875 C10.49248047 6.11451172 10.49248047 6.11451172 8.6875 6.1875 C7.51574219 6.22230469 6.34398437 6.25710937 5.13671875 6.29296875 C1.84677503 6.69152803 1.84677503 6.69152803 0.125 9.34375 C-1.10169545 12.24011426 -1.63752873 14.88274711 -2 18 C-1.01 18 -0.02 18 1 18 C1 18.66 1 19.32 1 20 C-3.29 20 -7.58 20 -12 20 C-12 19.34 -12 18.68 -12 18 C-10.02 17.34 -8.04 16.68 -6 16 C-6 14.68 -6 13.36 -6 12 C-5.34 12 -4.68 12 -4 12 C-3.896875 11.13375 -3.79375 10.2675 -3.6875 9.375 C-2.96601586 5.83316877 -1.72876739 3.15687958 0 0 Z " fill="#C7E9D8" transform="translate(204,244)"/>
<path d="M0 0 C0.66 0 1.32 0 2 0 C2 4.62 2 9.24 2 14 C6.62 14 11.24 14 16 14 C16 15.32 16 16.64 16 18 C11.38 18 6.76 18 2 18 C2 22.62 2 27.24 2 32 C1.34 32 0.68 32 0 32 C0 21.44 0 10.88 0 0 Z " fill="#C0E7D3" transform="translate(334,228)"/>
<path d="M0 0 C0.33 1.32 0.66 2.64 1 4 C2.32 4.33 3.64 4.66 5 5 C4.34 5 3.68 5 3 5 C3.33 13.58 3.66 22.16 4 31 C5.32 31.33 6.64 31.66 8 32 C8 32.66 8 33.32 8 34 C3.71 34 -0.58 34 -5 34 C-5 33.34 -5 32.68 -5 32 C-3.68 32 -2.36 32 -1 32 C-0.67 21.44 -0.34 10.88 0 0 Z " fill="#C1ECD8" transform="translate(365,230)"/>
<path d="M0 0 C0.80244141 -0.00773438 1.60488281 -0.01546875 2.43164062 -0.0234375 C3.20830078 -0.02085937 3.98496094 -0.01828125 4.78515625 -0.015625 C5.8371521 -0.01224121 5.8371521 -0.01224121 6.91040039 -0.00878906 C8.9375 0.25 8.9375 0.25 12.9375 2.25 C12.9375 5.22 12.9375 8.19 12.9375 11.25 C11.9475 11.25 10.9575 11.25 9.9375 11.25 C9.6075 9.27 9.2775 7.29 8.9375 5.25 C4.44581269 3.7527709 -0.98418104 3.2685716 -5.3125 5.3125 C-5.89 5.621875 -6.4675 5.93125 -7.0625 6.25 C-9.3125 5.875 -9.3125 5.875 -11.0625 5.25 C-9.7425 4.59 -8.4225 3.93 -7.0625 3.25 C-9.7025 3.58 -12.3425 3.91 -15.0625 4.25 C-14.0625 2.25 -14.0625 2.25 -12.06640625 1.140625 C-7.9976887 -0.06570478 -4.21996751 -0.04087136 0 0 Z " fill="#8DD3AE" transform="translate(305.0625,223.75)"/>
<path d="M0 0 C1.32 0.33 2.64 0.66 4 1 C5.25 3.5625 5.25 3.5625 6 6 C6.66 6 7.32 6 8 6 C8 4.02 8 2.04 8 0 C8.99 0 9.98 0 11 0 C11 4.29 11 8.58 11 13 C7 11 7 11 5 8 C4.67 9.98 4.34 11.96 4 14 C2.68 14 1.36 14 0 14 C0 9.38 0 4.76 0 0 Z " fill="#C0BEC0" transform="translate(358,283)"/>
<path d="M0 0 C1.32 0 2.64 0 4 0 C4 0.66 4 1.32 4 2 C3.34 2 2.68 2 2 2 C2 14.21 2 26.42 2 39 C0.68 38.67 -0.64 38.34 -2 38 C-2.66 35.03 -3.32 32.06 -4 29 C-2.68 29 -1.36 29 0 29 C0 19.43 0 9.86 0 0 Z " fill="#D4EFE5" transform="translate(396,226)"/>
<path d="M0 0 C0.9583374 0.00523682 1.9166748 0.01047363 2.90405273 0.01586914 C4.45576172 0.02070313 4.45576172 0.02070313 6.03881836 0.02563477 C7.12743164 0.03401367 8.21604492 0.04239258 9.33764648 0.05102539 C10.97636719 0.05779297 10.97636719 0.05779297 12.64819336 0.06469727 C15.35723144 0.07652713 18.06616248 0.09300996 20.77514648 0.11352539 C17.62199863 2.21562396 16.91411568 2.35700149 13.32592773 2.30883789 C12.05458984 2.29916992 12.05458984 2.29916992 10.75756836 2.28930664 C9.87649414 2.27254883 8.99541992 2.25579102 8.08764648 2.23852539 C7.1949707 2.22950195 6.30229492 2.22047852 5.38256836 2.21118164 C3.17997983 2.18762454 0.97752923 2.15175383 -1.22485352 2.11352539 C-1.22485352 5.74352539 -1.22485352 9.37352539 -1.22485352 13.11352539 C0.75514648 12.45352539 2.73514648 11.79352539 4.77514648 11.11352539 C2.96264648 13.11352539 2.96264648 13.11352539 0.77514648 15.11352539 C-0.21485352 15.11352539 -1.20485352 15.11352539 -2.22485352 15.11352539 C-2.22485352 23.36352539 -2.22485352 31.61352539 -2.22485352 40.11352539 C-2.55485352 40.11352539 -2.88485352 40.11352539 -3.22485352 40.11352539 C-3.24950127 34.57764006 -3.26768847 29.04178639 -3.27978516 23.50585938 C-3.28482596 21.62108809 -3.2916585 19.73632074 -3.30029297 17.8515625 C-3.31236969 15.14850903 -3.3180842 12.44550708 -3.32250977 9.74243164 C-3.32767105 8.89451553 -3.33283234 8.04659943 -3.33815002 7.17298889 C-3.33834546 5.15281471 -3.28691562 3.13274605 -3.22485352 1.11352539 C-2.22485352 0.11352539 -2.22485352 0.11352539 0 0 Z " fill="#A6BDDE" transform="translate(135.224853515625,221.886474609375)"/>
<path d="M0 0 C6.15234375 -0.09765625 6.15234375 -0.09765625 8 0 C9 1 9 1 9.0625 3.21484375 C9.02089308 5.02734512 8.97922659 6.83984513 8.9375 8.65234375 C8.83487207 11.02245407 8.83487207 11.02245407 10 13 C8.68 13 7.36 13 6 13 C5.67 12.01 5.34 11.02 5 10 C4.34 9.67 3.68 9.34 3 9 C3 10.65 3 12.3 3 14 C2.01 14 1.02 14 0 14 C0 9.38 0 4.76 0 0 Z " fill="#A2A0A2" transform="translate(444,283)"/>
<path d="M0 0 C0.99 0 1.98 0 3 0 C3 4.29 3 8.58 3 13 C1.68 12.67 0.36 12.34 -1 12 C-1 11.01 -1 10.02 -1 9 C-1.66 9 -2.32 9 -3 9 C-3.33 10.65 -3.66 12.3 -4 14 C-4.99 14 -5.98 14 -7 14 C-7 9.71 -7 5.42 -7 1 C-3 3 -3 3 0 5 C0 3.35 0 1.7 0 0 Z " fill="#B2B2B4" transform="translate(411,283)"/>
<path d="M0 0 C3.375 -0.125 3.375 -0.125 7 0 C9 2 9 2 9.0625 5.9375 C9.03285156 6.62714844 9.00320312 7.31679688 8.97265625 8.02734375 C8.90332679 10.21506135 8.90332679 10.21506135 10 13 C7 13 7 13 4.8125 11 C4.214375 10.34 3.61625 9.68 3 9 C3 10.32 3 11.64 3 13 C2.01 13 1.02 13 0 13 C0 8.71 0 4.42 0 0 Z " fill="#929294" transform="translate(164,283)"/>
<path d="M0 0 C3.375 -0.125 3.375 -0.125 7 0 C7.66 0.66 8.32 1.32 9 2 C8.96712417 4.72869407 8.43602229 7.2966618 8 10 C6.68 10 5.36 10 4 10 C3.67 11.32 3.34 12.64 3 14 C2.01 13.67 1.02 13.34 0 13 C0 8.71 0 4.42 0 0 Z " fill="#B5B3B5" transform="translate(278,283)"/>
<path d="M0 0 C1.15145508 -0.01836914 1.15145508 -0.01836914 2.32617188 -0.03710938 C6.22167874 -0.04729815 8.1241199 -0.02142006 11.4375 2.1875 C11.73046875 4.3515625 11.73046875 4.3515625 11.625 6.8125 C11.59792969 7.62976563 11.57085937 8.44703125 11.54296875 9.2890625 C11.50816406 9.91554687 11.47335937 10.54203125 11.4375 11.1875 C10.4475 11.1875 9.4575 11.1875 8.4375 11.1875 C7.98375 10.218125 7.53 9.24875 7.0625 8.25 C5.77963779 5.11670418 5.77963779 5.11670418 3.4375 4.1875 C0.41405523 4.19631471 -2.59649386 4.31914102 -5.6171875 4.4453125 C-8.90427302 4.15758353 -10.17307344 3.39223658 -12.5625 1.1875 C-8.33406021 0.00457524 -4.36395408 0.00368266 0 0 Z " fill="#C6EFDE" transform="translate(262.5625,223.8125)"/>
<path d="M0 0 C2.95887459 -0.08069658 5.9155659 -0.14034665 8.875 -0.1875 C9.71675781 -0.21263672 10.55851562 -0.23777344 11.42578125 -0.26367188 C12.23144531 -0.27333984 13.03710938 -0.28300781 13.8671875 -0.29296875 C14.98262939 -0.31653442 14.98262939 -0.31653442 16.12060547 -0.34057617 C17.05090576 -0.17199097 17.05090576 -0.17199097 18 0 C18.66 0.99 19.32 1.98 20 3 C19.01 3 18.02 3 17 3 C17 4.98 17 6.96 17 9 C16.34 9 15.68 9 15 9 C14.525625 8.195625 14.05125 7.39125 13.5625 6.5625 C12.20016328 3.7081924 12.20016328 3.7081924 9 3 C9.061875 3.9075 9.12375 4.815 9.1875 5.75 C8.97898296 9.36429542 8.23586253 10.30053343 6 13 C5.90203125 12.31292969 5.8040625 11.62585938 5.703125 10.91796875 C5.55359375 10.01691406 5.4040625 9.11585938 5.25 8.1875 C5.11078125 7.29417969 4.9715625 6.40085937 4.828125 5.48046875 C3.831159 2.49427342 2.6417565 1.61619656 0 0 Z " fill="#F3F1F2" transform="translate(349,280)"/>
<path d="M0 0 C0.99 0 1.98 0 3 0 C3 14.19 3 28.38 3 43 C2.01 43 1.02 43 0 43 C0 28.81 0 14.62 0 0 Z " fill="#C6D3EA" transform="translate(130,221)"/>
<path d="M0 0 C1.32 0 2.64 0 4 0 C4 3.63 4 7.26 4 11 C5.65 11 7.3 11 9 11 C9.33 7.37 9.66 3.74 10 0 C10.33 0 10.66 0 11 0 C11.02685938 2.14576637 11.04633088 4.29162645 11.0625 6.4375 C11.07410156 7.63246094 11.08570313 8.82742188 11.09765625 10.05859375 C11 13 11 13 10 14 C6.66381769 14.14257189 3.34024394 14.04228157 0 14 C0 9.38 0 4.76 0 0 Z " fill="#D7D8DA" transform="translate(177,283)"/>
<path d="M0 0 C4.45821166 -0.08674429 8.91620804 -0.14030513 13.375 -0.1875 C14.64601562 -0.21263672 15.91703125 -0.23777344 17.2265625 -0.26367188 C18.43828125 -0.27333984 19.65 -0.28300781 20.8984375 -0.29296875 C22.01911621 -0.3086792 23.13979492 -0.32438965 24.29443359 -0.34057617 C25.18727051 -0.22818604 26.08010742 -0.1157959 27 0 C27.66 0.99 28.32 1.98 29 3 C18.44 3 7.88 3 -3 3 C-2.01 2.67 -1.02 2.34 0 2 C0 1.34 0 0.68 0 0 Z " fill="#ABC1E3" transform="translate(133,262)"/>
<path d="M0 0 C0.99 0 1.98 0 3 0 C2.34 2.97 1.68 5.94 1 9 C-8.9 9 -18.8 9 -29 9 C-29 8.34 -29 7.68 -29 7 C-27.02 6.34 -25.04 5.68 -23 5 C-23 5.66 -23 6.32 -23 7 C-13.1 6.505 -13.1 6.505 -3 6 C-2.34 4.68 -1.68 3.36 -1 2 C-0.67 1.34 -0.34 0.68 0 0 Z " fill="#C3E7D6" transform="translate(353,255)"/>
<path d="M0 0 C8.3984375 -0.29296875 8.3984375 -0.29296875 11 0 C11.66 0.99 12.32 1.98 13 3 C9.37 2.67 5.74 2.34 2 2 C2 5.63 2 9.26 2 13 C5.96 13 9.92 13 14 13 C14 13.66 14 14.32 14 15 C9.38 15 4.76 15 0 15 C0 10.05 0 5.1 0 0 Z " fill="#30A66A" transform="translate(336,227)"/>
<path d="M0 0 C0.66 0 1.32 0 2 0 C5.42857143 7.28571429 5.42857143 7.28571429 5 12 C2.03 12 -0.94 12 -4 12 C-2.25 3.375 -2.25 3.375 0 0 Z " fill="#249D5B" transform="translate(212,235)"/>
<path d="M0 0 C1.32 0 2.64 0 4 0 C4.99 3.96 5.98 7.92 7 12 C4.36 11.34 1.72 10.68 -1 10 C-1 10.66 -1 11.32 -1 12 C-1.99 12 -2.98 12 -4 12 C-3.52309796 10.37433394 -3.04340334 8.74948689 -2.5625 7.125 C-2.29566406 6.22007812 -2.02882812 5.31515625 -1.75390625 4.3828125 C-1 2 -1 2 0 0 Z " fill="#B0B0B1" transform="translate(238,284)"/>
<path d="M0 0 C0 0.66 0 1.32 0 2 C-1.65 2 -3.3 2 -5 2 C-5 4.31 -5 6.62 -5 9 C-2.69 9.33 -0.38 9.66 2 10 C1.67 11.32 1.34 12.64 1 14 C-5.40096618 14.48309179 -5.40096618 14.48309179 -7.9375 12.4375 C-9.39343329 9.09741776 -9.3931463 6.60384106 -9 3 C-6.82246161 -0.75020501 -4.02857537 -0.26857169 0 0 Z " fill="#A2A0A1" transform="translate(218,283)"/>
<path d="M0 0 C0.99 0 1.98 0 3 0 C3 6.27 3 12.54 3 19 C2.34 19 1.68 19 1 19 C-1.34798025 15.31561992 -1.23646696 12.10823752 -1.1875 7.8125 C-1.18105469 6.56082031 -1.17460937 5.30914062 -1.16796875 4.01953125 C-1 1 -1 1 0 0 Z " fill="#28A35F" transform="translate(289,235)"/>
<path d="M0 0 C0.66 0 1.32 0 2 0 C2.042721 1.66611905 2.04063832 3.33382885 2 5 C1 6 1 6 -2.16015625 6.09765625 C-4.09181641 6.08025391 -4.09181641 6.08025391 -6.0625 6.0625 C-7.35285156 6.05347656 -8.64320313 6.04445312 -9.97265625 6.03515625 C-10.97167969 6.02355469 -11.97070312 6.01195312 -13 6 C-12.67 9.96 -12.34 13.92 -12 18 C-8.04 18 -4.08 18 0 18 C-2 20 -2 20 -4.56640625 20.23046875 C-5.55511719 20.21628906 -6.54382813 20.20210938 -7.5625 20.1875 C-8.55378906 20.18105469 -9.54507812 20.17460937 -10.56640625 20.16796875 C-13 20 -13 20 -14 19 C-14.07313567 16.46950598 -14.09247527 13.96695163 -14.0625 11.4375 C-14.05798828 10.72658203 -14.05347656 10.01566406 -14.04882812 9.28320312 C-14.03700864 7.52209987 -14.01907263 5.76103964 -14 4 C-9.38 4 -4.76 4 0 4 C0 2.68 0 1.36 0 0 Z " fill="#32AB6A" transform="translate(350,242)"/>
<path d="M0 0 C6.34507042 -0.35915493 6.34507042 -0.35915493 8.9375 1.0625 C10.6140629 4.11976176 10.36528977 6.5906288 10 10 C8.875 11.9375 8.875 11.9375 7 13 C3.8125 13.1875 3.8125 13.1875 1 13 C1 12.67 1 12.34 1 12 C2.65 12 4.3 12 6 12 C6 9.03 6 6.06 6 3 C4.68 2.67 3.36 2.34 2 2 C2 4.31 2 6.62 2 9 C1.34 9 0.68 9 0 9 C0 6.03 0 3.06 0 0 Z " fill="#9A999B" transform="translate(189,283)"/>
<path d="M0 0 C0.99 0.33 1.98 0.66 3 1 C3 3.31 3 5.62 3 8 C3.66 8 4.32 8 5 8 C5.33 5.36 5.66 2.72 6 0 C6.99 0 7.98 0 9 0 C8.45144652 4.571279 7.58255197 8.67435795 6 13 C5.01 13 4.02 13 3 13 C2.67 11.02 2.34 9.04 2 7 C1.01 7.33 0.02 7.66 -1 8 C-1.125 2.25 -1.125 2.25 0 0 Z " fill="#9E9FA0" transform="translate(137,283)"/>
<path d="M0 0 C12.54 0 25.08 0 38 0 C38 3.96 38 7.92 38 12 C36.68 12 35.36 12 34 12 C34 11.34 34 10.68 34 10 C34.66 10 35.32 10 36 10 C36 7.03 36 4.06 36 1 C24.12 1 12.24 1 0 1 C0 0.67 0 0.34 0 0 Z " fill="#54A37B" transform="translate(406,224)"/>
<path d="M0 0 C-3.75 3 -3.75 3 -6 3 C-6 10.59 -6 18.18 -6 26 C-6.66 26 -7.32 26 -8 26 C-8 17.75 -8 9.5 -8 1 C-3 -1 -3 -1 0 0 Z " fill="#5985B5" transform="translate(141,236)"/>
<path d="M0 0 C3.71599191 -0.20086443 4.77208445 -0.1519437 8 2 C8.56737589 9.14893617 8.56737589 9.14893617 6 13 C-0.125 13.4375 -0.125 13.4375 -3 12 C-3 9.36 -3 6.72 -3 4 C-2.34 3.67 -1.68 3.34 -1 3 C-0.67 5.31 -0.34 7.62 0 10 C1.94603274 10.59070014 1.94603274 10.59070014 4 11 C5.20561184 10.01732141 5.20561184 10.01732141 5.09765625 8.15234375 C5.08605469 7.42144531 5.07445312 6.69054687 5.0625 5.9375 C5.041875 4.638125 5.02125 3.33875 5 2 C3.35 2 1.7 2 0 2 C0 1.34 0 0.68 0 0 Z " fill="#918F92" transform="translate(432,283)"/>
<path d="M0 0 C1.2065625 0.0309375 1.2065625 0.0309375 2.4375 0.0625 C2.4375 0.7225 2.4375 1.3825 2.4375 2.0625 C1.4475 2.0625 0.4575 2.0625 -0.5625 2.0625 C0.12961609 5.16208263 0.12961609 5.16208263 2.5 6.4375 C4.4375 8.0625 4.4375 8.0625 4.6875 10.75 C4.605 11.513125 4.5225 12.27625 4.4375 13.0625 C2.1275 13.3925 -0.1825 13.7225 -2.5625 14.0625 C-2.8925 13.0725 -3.2225 12.0825 -3.5625 11.0625 C-1.9125 11.0625 -0.2625 11.0625 1.4375 11.0625 C1.4375 10.0725 1.4375 9.0825 1.4375 8.0625 C-1.0375 7.0725 -1.0375 7.0725 -3.5625 6.0625 C-3.605221 4.39638095 -3.60313832 2.72867115 -3.5625 1.0625 C-2.5625 0.0625 -2.5625 0.0625 0 0 Z " fill="#8D8B8D" transform="translate(262.5625,282.9375)"/>
<path d="M0 0 C5.28 0 10.56 0 16 0 C16 0.66 16 1.32 16 2 C14.02 2 12.04 2 10 2 C10 2.99 10 3.98 10 5 C9.34 5 8.68 5 8 5 C8 8.63 8 12.26 8 16 C7.67 16 7.34 16 7 16 C7 11.71 7 7.42 7 3 C4.69 3.66 2.38 4.32 0 5 C0 3.35 0 1.7 0 0 Z " fill="#F5F4F4" transform="translate(313,280)"/>
<path d="M0 0 C0.99 0 1.98 0 3 0 C3 3.63 3 7.26 3 11 C5.31 11.33 7.62 11.66 10 12 C10 12.66 10 13.32 10 14 C6.7 14 3.4 14 0 14 C0 9.38 0 4.76 0 0 Z " fill="#A19FA1" transform="translate(223,283)"/>
<path d="M0 0 C1.4540625 0.0309375 1.4540625 0.0309375 2.9375 0.0625 C2.9375 0.7225 2.9375 1.3825 2.9375 2.0625 C1.6175 2.0625 0.2975 2.0625 -1.0625 2.0625 C0.07054992 5.46164975 1.06268475 6.11504451 3.9375 8.0625 C3.0625 12.9375 3.0625 12.9375 1.9375 14.0625 C-0.06208364 14.10330783 -2.06295254 14.10504356 -4.0625 14.0625 C-4.0625 13.4025 -4.0625 12.7425 -4.0625 12.0625 C-3.423125 11.959375 -2.78375 11.85625 -2.125 11.75 C-1.1040625 11.4096875 -1.1040625 11.4096875 -0.0625 11.0625 C0.2675 10.0725 0.5975 9.0825 0.9375 8.0625 C-1.5375 7.0725 -1.5375 7.0725 -4.0625 6.0625 C-4.105221 4.39638095 -4.10313832 2.72867115 -4.0625 1.0625 C-3.0625 0.0625 -3.0625 0.0625 0 0 Z " fill="#908F91" transform="translate(309.0625,282.9375)"/>
<path d="M0 0 C2.64 0 5.28 0 8 0 C8 0.66 8 1.32 8 2 C6.02 2 4.04 2 2 2 C2.33 2.99 2.66 3.98 3 5 C5.01508358 5.73323796 5.01508358 5.73323796 7 6 C7 6.66 7 7.32 7 8 C6.01 8.33 5.02 8.66 4 9 C3.67 9.99 3.34 10.98 3 12 C4.65 12 6.3 12 8 12 C8 12.33 8 12.66 8 13 C5.36 13 2.72 13 0 13 C0 8.71 0 4.42 0 0 Z " fill="#919293" transform="translate(392,283)"/>
<path d="M0 0 C1.32 0 2.64 0 4 0 C5.38125018 2.76250036 5.19079306 4.94731099 5 8 C4.34 8.66 3.68 9.32 3 10 C-0.53571429 9.46428571 -0.53571429 9.46428571 -2 8 C-2.1875 5.0625 -2.1875 5.0625 -2 2 C-1.34 1.34 -0.68 0.68 0 0 Z " fill="#E7E7E8" transform="translate(153,285)"/>
<path d="M0 0 C1.98 0 3.96 0 6 0 C6 0.66 6 1.32 6 2 C4.68 2 3.36 2 2 2 C2 2.99 2 3.98 2 5 C2.61875 5.12375 3.2375 5.2475 3.875 5.375 C6 6 6 6 8 8 C8 9.32 8 10.64 8 12 C5.29120665 13.35439668 2.99066732 13.06501451 0 13 C3 11 3 11 5 11 C4.67 10.34 4.34 9.68 4 9 C3.01 8.67 2.02 8.34 1 8 C-1 5 -1 5 -0.625 2.3125 C-0.41875 1.549375 -0.2125 0.78625 0 0 Z " fill="#9C9A9B" transform="translate(248,283)"/>
<path d="M0 0 C1.2065625 0.0309375 1.2065625 0.0309375 2.4375 0.0625 C2.4375 0.7225 2.4375 1.3825 2.4375 2.0625 C1.1175 2.0625 -0.2025 2.0625 -1.5625 2.0625 C-1.5625 3.0525 -1.5625 4.0425 -1.5625 5.0625 C1.4075 5.5575 1.4075 5.5575 4.4375 6.0625 C4.4375 8.3725 4.4375 10.6825 4.4375 13.0625 C1.7975 13.0625 -0.8425 13.0625 -3.5625 13.0625 C-2.2425 12.4025 -0.9225 11.7425 0.4375 11.0625 C0.4375 10.4025 0.4375 9.7425 0.4375 9.0625 C-0.2225 8.629375 -0.8825 8.19625 -1.5625 7.75 C-3.5625 6.0625 -3.5625 6.0625 -3.875 3.4375 C-3.44213713 0.1477422 -3.34981931 0.08170291 0 0 Z " fill="#A6A4A7" transform="translate(421.5625,282.9375)"/>
<path d="M0 0 C0 0.66 0 1.32 0 2 C1.32 2.33 2.64 2.66 4 3 C2.824375 3.12375 2.824375 3.12375 1.625 3.25 C-1.14749104 3.72806339 -1.14749104 3.72806339 -2.3125 6.0625 C-2.539375 6.701875 -2.76625 7.34125 -3 8 C-3 7.01 -3 6.02 -3 5 C-3.66 5 -4.32 5 -5 5 C-5.33 6.32 -5.66 7.64 -6 9 C-6.33 7.35 -6.66 5.7 -7 4 C-9.64 3.67 -12.28 3.34 -15 3 C-14.67 2.34 -14.34 1.68 -14 1 C-9.31604754 -0.14242743 -4.78644729 -0.08252495 0 0 Z " fill="#ECEAEB" transform="translate(459,280)"/>
<path d="M0 0 C1.32 0 2.64 0 4 0 C4 4.62 4 9.24 4 14 C2.68 14 1.36 14 0 14 C0 9.38 0 4.76 0 0 Z " fill="#A7A5A7" transform="translate(316,283)"/>
<path d="M0 0 C1.98 0 3.96 0 6 0 C6 0.66 6 1.32 6 2 C4.68 2 3.36 2 2 2 C2 2.99 2 3.98 2 5 C2.804375 5.226875 3.60875 5.45375 4.4375 5.6875 C5.283125 6.120625 6.12875 6.55375 7 7 C7.8125 9.625 7.8125 9.625 8 12 C5.29120665 13.35439668 2.99066732 13.06501451 0 13 C3 11 3 11 5 11 C5 10.01 5 9.02 5 8 C4.38125 7.87625 3.7625 7.7525 3.125 7.625 C1 7 1 7 -1 5 C-0.625 2.375 -0.625 2.375 0 0 Z " fill="#969497" transform="translate(381,283)"/>
<path d="M0 0 C4.29 0 8.58 0 13 0 C12.67 0.99 12.34 1.98 12 3 C11.34 3 10.68 3 10 3 C10 2.34 10 1.68 10 1 C8.68 1 7.36 1 6 1 C6 10.24 6 19.48 6 29 C5.01 28.67 4.02 28.34 3 28 C3.66 28 4.32 28 5 28 C5 19.75 5 11.5 5 3 C3.35 2.67 1.7 2.34 0 2 C0 1.34 0 0.68 0 0 Z " fill="#98E3BA" transform="translate(390,225)"/>
<path d="M0 0 C7.59 0 15.18 0 23 0 C18.96498481 4.03501519 17.32168808 4.77191814 12 6 C12 5.34 12 4.68 12 4 C13.32 4 14.64 4 16 4 C16 3.01 16 2.02 16 1 C11.05 1 6.1 1 1 1 C1 3.97 1 6.94 1 10 C1.66 10.33 2.32 10.66 3 11 C2.01 11 1.02 11 0 11 C0 7.37 0 3.74 0 0 Z " fill="#E3E7F1" transform="translate(134,224)"/>
<path d="M0 0 C1.4540625 0.0309375 1.4540625 0.0309375 2.9375 0.0625 C2.9375 0.7225 2.9375 1.3825 2.9375 2.0625 C1.6175 2.0625 0.2975 2.0625 -1.0625 2.0625 C-1.0625 3.0525 -1.0625 4.0425 -1.0625 5.0625 C0.2575 5.7225 1.5775 6.3825 2.9375 7.0625 C2.980221 8.72861905 2.97813832 10.39632885 2.9375 12.0625 C1.9375 13.0625 1.9375 13.0625 -1.125 13.125 C-2.094375 13.104375 -3.06375 13.08375 -4.0625 13.0625 C-4.0625 12.7325 -4.0625 12.4025 -4.0625 12.0625 C-2.4125 12.0625 -0.7625 12.0625 0.9375 12.0625 C0.24538391 8.96291737 0.24538391 8.96291737 -2.125 7.6875 C-4.0625 6.0625 -4.0625 6.0625 -4.375 3.4375 C-3.90540739 -0.13140386 -3.70307683 0.075573 0 0 Z " fill="#9B999A" transform="translate(461.0625,282.9375)"/>
<path d="M0 0 C0.598125 0.185625 1.19625 0.37125 1.8125 0.5625 C4.16408762 1.22093687 4.16408762 1.22093687 7 0 C7 4.62 7 9.24 7 14 C6.34 14 5.68 14 5 14 C5 13.01 5 12.02 5 11 C4.01 10.67 3.02 10.34 2 10 C2.33 7.36 2.66 4.72 3 2 C2.01 1.67 1.02 1.34 0 1 C0 0.67 0 0.34 0 0 Z " fill="#E3E1E4" transform="translate(437,283)"/>
<path d="M0 0 C0.66 0 1.32 0 2 0 C2 7.59 2 15.18 2 23 C0.68 22.01 -0.64 21.02 -2 20 C-2 19.01 -2 18.02 -2 17 C-1.34 17 -0.68 17 0 17 C0 11.39 0 5.78 0 0 Z " fill="#049143" transform="translate(392,229)"/>
<path d="M0 0 C4.95 0 9.9 0 15 0 C15 0.99 15 1.98 15 3 C11.7 2.67 8.4 2.34 5 2 C5 2.66 5 3.32 5 4 C5.99 4.33 6.98 4.66 8 5 C6.35 4.67 4.7 4.34 3 4 C3 3.01 3 2.02 3 1 C2.34 1 1.68 1 1 1 C1 4.63 1 8.26 1 12 C-0.32 11.67 -1.64 11.34 -3 11 C-2.01 11 -1.02 11 0 11 C0 7.37 0 3.74 0 0 Z " fill="#2BA667" transform="translate(354,223)"/>
<path d="M0 0 C1.67542976 0.28604898 3.34385343 0.61781233 5 1 C5 3.31 5 5.62 5 8 C3.35 8.33 1.7 8.66 0 9 C-1.36623674 6.26752652 -1.128426 4.01801098 -1 1 C-0.67 0.67 -0.34 0.34 0 0 Z " fill="#EFEDEF" transform="translate(347,285)"/>
<path d="M0 0 C1.67542976 0.28604898 3.34385343 0.61781233 5 1 C5 3.31 5 5.62 5 8 C3.34385343 8.38218767 1.67542976 8.71395102 0 9 C-1 8 -1 8 -1.125 4.5 C-1 1 -1 1 0 0 Z " fill="#EFEDEF" transform="translate(294,285)"/>
<path d="M0 0 C0.33 0 0.66 0 1 0 C1 4.29 1 8.58 1 13 C-0.98 13.33 -2.96 13.66 -5 14 C-4.34 13.34 -3.68 12.68 -3 12 C-3.2475 10.576875 -3.2475 10.576875 -3.5 9.125 C-4.03299504 5.79378099 -3.79939823 4.75202083 -2 2 C-2 2.66 -2 3.32 -2 4 C-1.34 4 -0.68 4 0 4 C0 2.68 0 1.36 0 0 Z " fill="#E6E6E8" transform="translate(176,283)"/>
<path d="M0 0 C2.64 0 5.28 0 8 0 C5.66785852 1.20628008 3.50357861 2.1654738 1 3 C1.33 12.24 1.66 21.48 2 31 C1.34 31 0.68 31 0 31 C0 20.77 0 10.54 0 0 Z " fill="#039043" transform="translate(429,229)"/>
<path d="M0 0 C3.3 0 6.6 0 10 0 C10 0.66 10 1.32 10 2 C8.68 2 7.36 2 6 2 C6 5.63 6 9.26 6 13 C5.34 13 4.68 13 4 13 C4 9.37 4 5.74 4 2 C2.68 2 1.36 2 0 2 C0 1.34 0 0.68 0 0 Z " fill="#868486" transform="translate(323,283)"/>
<path d="M0 0 C2.15377564 2.62198774 3.40072174 4.64404172 4 8 C3.34 8 2.68 8 2 8 C2.33 8.99 2.66 9.98 3 11 C5.50447516 12.21869929 5.50447516 12.21869929 8 13 C6.3125 13.8125 6.3125 13.8125 4 14 C1.12969001 11.53973429 -0.90326143 9.14510786 -3 6 C-2.01 6 -1.02 6 0 6 C0 4.02 0 2.04 0 0 Z " fill="#BDE6D1" transform="translate(244,250)"/>
<path d="M0 0 C1.65 0 3.3 0 5 0 C4.01 0.495 4.01 0.495 3 1 C3 3.31 3 5.62 3 8 C3.66 8.33 4.32 8.66 5 9 C4.01 9.495 4.01 9.495 3 10 C2.67 10.99 2.34 11.98 2 13 C1.34 13 0.68 13 0 13 C0 8.71 0 4.42 0 0 Z " fill="#8C8A8C" transform="translate(278,283)"/>
<path d="M0 0 C4.95 0 9.9 0 15 0 C15 0.33 15 0.66 15 1 C11.37 1.33 7.74 1.66 4 2 C3.34 3.98 2.68 5.96 2 8 C1.34 8 0.68 8 0 8 C0 5.36 0 2.72 0 0 Z " fill="#CFF3E7" transform="translate(406,226)"/>
<path d="M0 0 C2.31 0 4.62 0 7 0 C7 2.97 7 5.94 7 9 C6.01 9 5.02 9 4 9 C3.67 7.02 3.34 5.04 3 3 C2.34 3 1.68 3 1 3 C0.67 2.01 0.34 1.02 0 0 Z " fill="#CEEFE2" transform="translate(311,226)"/>
<path d="M0 0 C0.99 0 1.98 0 3 0 C3 4.29 3 8.58 3 13 C2.01 13 1.02 13 0 13 C0 8.71 0 4.42 0 0 Z " fill="#969497" transform="translate(337,283)"/>
<path d="M0 0 C0.33 0 0.66 0 1 0 C1 4.29 1 8.58 1 13 C1.99 13 2.98 13 4 13 C4 11.68 4 10.36 4 9 C4.66 9.33 5.32 9.66 6 10 C5.67 11.32 5.34 12.64 5 14 C3.02 14 1.04 14 -1 14 C-1 13.01 -1 12.02 -1 11 C-1.66 11 -2.32 11 -3 11 C-2.53199289 6.94393835 -2.12046792 3.53411321 0 0 Z " fill="#E3E4E6" transform="translate(163,283)"/>
<path d="M0 0 C0.99 0 1.98 0 3 0 C3 4.29 3 8.58 3 13 C2.01 12.67 1.02 12.34 0 12 C0 8.04 0 4.08 0 0 Z " fill="#939193" transform="translate(366,283)"/>
<path d="M0 0 C5.61 0 11.22 0 17 0 C17 2.31 17 4.62 17 7 C16.34 7 15.68 7 15 7 C15 6.01 15 5.02 15 4 C11.73386305 2.08697693 9.00554752 1.64325339 5.25 1.375 C3.77273438 1.26285156 3.77273438 1.26285156 2.265625 1.1484375 C1.51796875 1.09945312 0.7703125 1.05046875 0 1 C0 0.67 0 0.34 0 0 Z " fill="#BBEFD9" transform="translate(336,226)"/>
<path d="M0 0 C0.66 0.33 1.32 0.66 2 1 C2 1.66 2 2.32 2 3 C2.66 3 3.32 3 4 3 C4.66 4.98 5.32 6.96 6 9 C4.51800098 8.55090939 3.03944764 8.09043436 1.5625 7.625 C0.73878906 7.36976563 -0.08492188 7.11453125 -0.93359375 6.8515625 C-3 6 -3 6 -4 4 C-2.68 4 -1.36 4 0 4 C0 2.68 0 1.36 0 0 Z " fill="#C7EDDB" transform="translate(290,254)"/>
<path d="M0 0 C0.75410156 0.00322266 1.50820313 0.00644531 2.28515625 0.00976562 C3.06246094 0.01814453 3.83976562 0.02652344 4.640625 0.03515625 C5.43339844 0.03966797 6.22617187 0.04417969 7.04296875 0.04882812 C8.99222008 0.0605706 10.94143238 0.07850479 12.890625 0.09765625 C12.890625 0.42765625 12.890625 0.75765625 12.890625 1.09765625 C10.580625 1.42765625 8.270625 1.75765625 5.890625 2.09765625 C5.890625 2.42765625 5.890625 2.75765625 5.890625 3.09765625 C4.31049283 3.34794436 2.72620194 3.57206571 1.140625 3.78515625 C-0.18195313 3.97658203 -0.18195313 3.97658203 -1.53125 4.171875 C-4.66614017 4.08162816 -5.82761087 3.17150262 -8.109375 1.09765625 C-5.33213575 0.3107718 -2.88327423 -0.02184299 0 0 Z " fill="#8AD0AD" transform="translate(258.109375,223.90234375)"/>
<path d="M0 0 C0.99 0 1.98 0 3 0 C3 0.66 3 1.32 3 2 C3.804375 2.144375 4.60875 2.28875 5.4375 2.4375 C8 3 8 3 9 4 C10.51469448 4.23192865 12.03754562 4.41215238 13.5625 4.5625 C14.38878906 4.64628906 15.21507812 4.73007812 16.06640625 4.81640625 C16.70449219 4.87699219 17.34257812 4.93757813 18 5 C18 5.33 18 5.66 18 6 C5.33029613 6.55353075 5.33029613 6.55353075 0 3 C0 2.01 0 1.02 0 0 Z " fill="#DDF7ED" transform="translate(246,258)"/>
<path d="M0 0 C-2.16866801 2.16866801 -4.35995069 3.45460528 -7 5 C-7.99 5.66 -8.98 6.32 -10 7 C-12.1875 6.625 -12.1875 6.625 -14 6 C-14 5.34 -14 4.68 -14 4 C-4.58997722 -0.59225513 -4.58997722 -0.59225513 0 0 Z " fill="#C8EEDD" transform="translate(300,226)"/>
<path d="M0 0 C0.66 0 1.32 0 2 0 C2.66 2.31 3.32 4.62 4 7 C1.36 6.34 -1.28 5.68 -4 5 C-4 5.66 -4 6.32 -4 7 C-4.99 7 -5.98 7 -7 7 C-6.67 5.68 -6.34 4.36 -6 3 C-4.02 3 -2.04 3 0 3 C0 2.01 0 1.02 0 0 Z " fill="#9A9A9C" transform="translate(241,289)"/>
<path d="M0 0 C0.33 0.66 0.66 1.32 1 2 C-0.32 2 -1.64 2 -3 2 C-3 2.66 -3 3.32 -3 4 C1.29 4 5.58 4 10 4 C10.33 3.34 10.66 2.68 11 2 C11.33 2.99 11.66 3.98 12 5 C4.08 5.495 4.08 5.495 -4 6 C-4.33 4.68 -4.66 3.36 -5 2 C-3.35 1.34 -1.7 0.68 0 0 Z " fill="#3BB376" transform="translate(363,260)"/>
<path d="M0 0 C2.99324263 1.0975223 3.84610901 1.67682892 5.25 4.625 C5.4975 5.40875 5.745 6.1925 6 7 C3.69 7 1.38 7 -1 7 C-1.04254356 5.00045254 -1.04080783 2.99958364 -1 1 C-0.67 0.67 -0.34 0.34 0 0 Z " fill="#EAFAF3" transform="translate(225,256)"/>
<path d="M0 0 C0.66 0 1.32 0 2 0 C3.28571429 7.42857143 3.28571429 7.42857143 2 11 C-0.31 11 -2.62 11 -5 11 C-4.03320312 10.64808594 -4.03320312 10.64808594 -3.046875 10.2890625 C-0.7922092 9.18838927 -0.7922092 9.18838927 -0.390625 6.8359375 C-0.34421875 6.02382813 -0.2978125 5.21171875 -0.25 4.375 C-0.19328125 3.55773437 -0.1365625 2.74046875 -0.078125 1.8984375 C-0.05234375 1.27195312 -0.0265625 0.64546875 0 0 Z " fill="#8F8E90" transform="translate(299,285)"/>
<path d="M0 0 C0.66 0 1.32 0 2 0 C2.33 3.63 2.66 7.26 3 11 C4.65 11.33 6.3 11.66 8 12 C8 12.33 8 12.66 8 13 C5.36 13 2.72 13 0 13 C0 8.71 0 4.42 0 0 Z " fill="#8B8B8D" transform="translate(177,283)"/>
<path d="M0 0 C1.32 0 2.64 0 4 0 C3.34 2.31 2.68 4.62 2 7 C4.97 7 7.94 7 11 7 C11.33 6.01 11.66 5.02 12 4 C12 5.32 12 6.64 12 8 C8.37 8 4.74 8 1 8 C1 6.68 1 5.36 1 4 C0.34 4 -0.32 4 -1 4 C-0.67 2.68 -0.34 1.36 0 0 Z " fill="#9ADCBB" transform="translate(206,240)"/>
<path d="M0 0 C1.32 0 2.64 0 4 0 C4 2.31 4 4.62 4 7 C2.68 7.33 1.36 7.66 0 8 C0 5.36 0 2.72 0 0 Z " fill="#F0EEF1" transform="translate(192,286)"/>
<path d="M0 0 C0.99 0.33 1.98 0.66 3 1 C3 3.31 3 5.62 3 8 C3.66 8.33 4.32 8.66 5 9 C4.01 9 3.02 9 2 9 C2 8.34 2 7.68 2 7 C1.01 7.33 0.02 7.66 -1 8 C-1.125 2.25 -1.125 2.25 0 0 Z " fill="#AEAFB0" transform="translate(137,283)"/>
<path d="M0 0 C0.66 0 1.32 0 2 0 C2 1.65 2 3.3 2 5 C5.3 4.67 8.6 4.34 12 4 C12 4.66 12 5.32 12 6 C7.05 6 2.1 6 -3 6 C-2.67 5.34 -2.34 4.68 -2 4 C-1.34 4 -0.68 4 0 4 C0 2.68 0 1.36 0 0 Z " fill="#B6E1CE" transform="translate(222,258)"/>
<path d="M0 0 C0.66 0 1.32 0 2 0 C2 4.29 2 8.58 2 13 C1.34 13 0.68 13 0 13 C-1.29676812 8.38926889 -0.71109139 4.66159911 0 0 Z " fill="#89898B" transform="translate(412,283)"/>
<path d="M0 0 C1.32 0.33 2.64 0.66 4 1 C4.33 2.65 4.66 4.3 5 6 C2.29120665 7.35439668 -0.00933268 7.06501451 -3 7 C0 5 0 5 2 5 C1.34 3.35 0.68 1.7 0 0 Z " fill="#929093" transform="translate(251,289)"/>
<path d="M0 0 C0 0.33 0 0.66 0 1 C-1.65 1 -3.3 1 -5 1 C-4.67 1.99 -4.34 2.98 -4 4 C-4.27769908 6.3406065 -4.60539977 8.67624308 -5 11 C-5.33 11 -5.66 11 -6 11 C-6.33 9.02 -6.66 7.04 -7 5 C-7.33 6.98 -7.66 8.96 -8 11 C-8.33 11 -8.66 11 -9 11 C-9.35897436 4.77777778 -9.35897436 4.77777778 -7.875 1.5625 C-5.24871143 -0.6260738 -3.31446363 -0.29461899 0 0 Z " fill="#C0BEBF" transform="translate(437,282)"/>
<path d="M0 0 C0.66 0 1.32 0 2 0 C2 3.96 2 7.92 2 12 C0.68 12 -0.64 12 -2 12 C-2 11.34 -2 10.68 -2 10 C-1.34 10 -0.68 10 0 10 C0 6.7 0 3.4 0 0 Z " fill="#3EAE73" transform="translate(442,224)"/>
<path d="M0 0 C4.62 0 9.24 0 14 0 C14 2.31 14 4.62 14 7 C13.67 6.01 13.34 5.02 13 4 C12.34 4 11.68 4 11 4 C11 3.34 11 2.68 11 2 C7.37 1.67 3.74 1.34 0 1 C0 0.67 0 0.34 0 0 Z " fill="#D9F7EE" transform="translate(427,226)"/>
<path d="M0 0 C0.33 0 0.66 0 1 0 C1.23312509 3.34145968 1.10501612 5.71583874 -0.0625 8.875 C-2 11 -2 11 -5.6875 11.3125 C-6.780625 11.209375 -7.87375 11.10625 -9 11 C-9 10.67 -9 10.34 -9 10 C-7.35 9.67 -5.7 9.34 -4 9 C-3.566875 7.329375 -3.566875 7.329375 -3.125 5.625 C-2 2 -2 2 0 0 Z " fill="#A7A7A9" transform="translate(160,286)"/>
<path d="M0 0 C1.2065625 0.0309375 1.2065625 0.0309375 2.4375 0.0625 C2.4375 0.7225 2.4375 1.3825 2.4375 2.0625 C1.1175 2.0625 -0.2025 2.0625 -1.5625 2.0625 C-1.2325 3.0525 -0.9025 4.0425 -0.5625 5.0625 C0.0975 5.3925 0.7575 5.7225 1.4375 6.0625 C1.4375 6.7225 1.4375 7.3825 1.4375 8.0625 C-2.4375 7.1875 -2.4375 7.1875 -3.5625 6.0625 C-3.6875 3.5625 -3.6875 3.5625 -3.5625 1.0625 C-2.5625 0.0625 -2.5625 0.0625 0 0 Z " fill="#8E8C8E" transform="translate(421.5625,282.9375)"/>
<path d="M0 0 C0.66 0 1.32 0 2 0 C1.88637738 1.4800841 1.75877092 2.95910074 1.625 4.4375 C1.55539062 5.26121094 1.48578125 6.08492188 1.4140625 6.93359375 C1.27742188 7.61550781 1.14078125 8.29742187 1 9 C0.01 9.495 0.01 9.495 -1 10 C-1.33 8.68 -1.66 7.36 -2 6 C-2.99 6 -3.98 6 -5 6 C-3.38405168 3.95880212 -1.7143618 1.95927063 0 0 Z " fill="#B2E7CE" transform="translate(317,253)"/>
<path d="M0 0 C1.65 0 3.3 0 5 0 C5.39253254 4.44870215 4.15305957 7.14243493 2 11 C0.74458443 7.23375329 1.62938042 5.62811066 3 2 C2.01 2 1.02 2 0 2 C-0.33 2.66 -0.66 3.32 -1 4 C-0.67 2.68 -0.34 1.36 0 0 Z " fill="#3AAB71" transform="translate(353,253)"/>
<path d="M0 0 C0.33 0.66 0.66 1.32 1 2 C2.65 2 4.3 2 6 2 C6 3.32 6 4.64 6 6 C4.35 5.67 2.7 5.34 1 5 C0.67 5.99 0.34 6.98 0 8 C0 5.36 0 2.72 0 0 Z " fill="#B7B8BA" transform="translate(164,283)"/>
<path d="M0 0 C0.33 0 0.66 0 1 0 C1 1.65 1 3.3 1 5 C-1.31 5.33 -3.62 5.66 -6 6 C-6.33 5.01 -6.66 4.02 -7 3 C-5.35 3 -3.7 3 -2 3 C-1.67 2.34 -1.34 1.68 -1 1 C-0.67 0.67 -0.34 0.34 0 0 Z " fill="#ACAAAD" transform="translate(266,291)"/>
<path d="M0 0 C0.99 0 1.98 0 3 0 C3.66 3.96 4.32 7.92 5 12 C2.43470546 10.71735273 2.33500137 9.77227651 1.375 7.125 C1.11460937 6.42632812 0.85421875 5.72765625 0.5859375 5.0078125 C0 3 0 3 0 0 Z " fill="#9B9C9E" transform="translate(130,283)"/>
<path d="M0 0 C0.66 0.66 1.32 1.32 2 2 C5.58343976 2.16677282 5.58343976 2.16677282 9 2 C9 2.66 9 3.32 9 4 C4.71 4 0.42 4 -4 4 C-4 3.34 -4 2.68 -4 2 C-2.68 2 -1.36 2 0 2 C0 1.34 0 0.68 0 0 Z " fill="#B5E2D1" transform="translate(364,260)"/>
<path d="M0 0 C0.99 0 1.98 0 3 0 C3 3.96 3 7.92 3 12 C1.68 11.67 0.36 11.34 -1 11 C-0.05066101 7.64566891 0.89748835 4.30753495 2 1 C1.34 0.67 0.68 0.34 0 0 Z " fill="#43AE77" transform="translate(273,252)"/>
<path d="M0 0 C-3.222107 3.8665284 -6.14922412 4.88059018 -11 6 C-11 5.34 -11 4.68 -11 4 C-9.68 4 -8.36 4 -7 4 C-7 3.01 -7 2.02 -7 1 C-4.53721199 -0.231394 -2.7204945 -0.07159196 0 0 Z " fill="#DAE2F5" transform="translate(157,224)"/>
<path d="M0 0 C0.99 0.33 1.98 0.66 3 1 C2.67 4.3 2.34 7.6 2 11 C1.34 11 0.68 11 0 11 C0 7.37 0 3.74 0 0 Z " fill="#828082" transform="translate(359,285)"/>
<path d="M0 0 C0.33 0 0.66 0 1 0 C1 1.65 1 3.3 1 5 C2.65 5 4.3 5 6 5 C6 5.99 6 6.98 6 8 C4.35 7.67 2.7 7.34 1 7 C1 8.65 1 10.3 1 12 C0.67 12 0.34 12 0 12 C0 8.04 0 4.08 0 0 Z " fill="#7B797B" transform="translate(445,284)"/>
<path d="M0 0 C3.71599191 -0.20086443 4.77208445 -0.1519437 8 2 C7.67 4.31 7.34 6.62 7 9 C5.5393715 6.35261084 5 5.10551666 5 2 C3.35 2 1.7 2 0 2 C0 1.34 0 0.68 0 0 Z " fill="#939192" transform="translate(432,283)"/>
<path d="M0 0 C4.29 0 8.58 0 13 0 C12.67 1.32 12.34 2.64 12 4 C11.34 3.34 10.68 2.68 10 2 C7.34462628 1.43479997 4.70855287 1.26211802 2 1 C1.67 1.99 1.34 2.98 1 4 C0.67 2.68 0.34 1.36 0 0 Z " fill="#078B40" transform="translate(206,251)"/>
<path d="M0 0 C2.31 0 4.62 0 7 0 C6.67 1.32 6.34 2.64 6 4 C3.69 4 1.38 4 -1 4 C-0.34 3.34 0.32 2.68 1 2 C0.67 1.34 0.34 0.68 0 0 Z " fill="#C7C5C8" transform="translate(213,293)"/>
<path d="M0 0 C0.625 1.875 0.625 1.875 1 4 C-1 6 -1 6 -4.125 6.125 C-5.548125 6.063125 -5.548125 6.063125 -7 6 C-7 5.34 -7 4.68 -7 4 C-6.401875 3.896875 -5.80375 3.79375 -5.1875 3.6875 C-2.71756736 2.91123545 -1.67748765 1.92911079 0 0 Z " fill="#A4A2A5" transform="translate(312,291)"/>
<path d="M0 0 C1.32 0 2.64 0 4 0 C4 2.31 4 4.62 4 7 C3.34 7 2.68 7 2 7 C0.5393715 4.35261084 0 3.10551666 0 0 Z " fill="#F5FEFE" transform="translate(392,255)"/>
<path d="M0 0 C2.00841268 0.01421885 4.01537247 0.13420475 6.01953125 0.265625 C4.36953125 1.585625 2.71953125 2.905625 1.01953125 4.265625 C0.68953125 3.605625 0.35953125 2.945625 0.01953125 2.265625 C-1.63046875 2.925625 -3.28046875 3.585625 -4.98046875 4.265625 C-3.72152968 1.74774686 -2.88459378 0.38688832 0 0 Z " fill="#B8E7D4" transform="translate(249.98046875,225.734375)"/>
<path d="M0 0 C2.33944736 0.28730055 4.6739143 0.61936779 7 1 C7 2.33333333 7 3.66666667 7 5 C4.69 5 2.38 5 0 5 C-0.5625 3.0625 -0.5625 3.0625 -1 1 C-0.67 0.67 -0.34 0.34 0 0 Z " fill="#B2B0B3" transform="translate(292,292)"/>
<path d="M0 0 C1.32 0.33 2.64 0.66 4 1 C4.042721 2.66611905 4.04063832 4.33382885 4 6 C3 7 3 7 -0.0625 7.0625 C-1.5165625 7.0315625 -1.5165625 7.0315625 -3 7 C-3 6.67 -3 6.34 -3 6 C-1.35 6 0.3 6 2 6 C1.34 4.02 0.68 2.04 0 0 Z " fill="#858386" transform="translate(460,289)"/>
<path d="M0 0 C0.33 0 0.66 0 1 0 C1 1.65 1 3.3 1 5 C1.66 5 2.32 5 3 5 C3.33 5.66 3.66 6.32 4 7 C6.01669827 8.13350534 6.01669827 8.13350534 8 9 C5.125 9.125 5.125 9.125 2 9 C0 7 0 7 -0.125 3.375 C-0.08375 2.26125 -0.0425 1.1475 0 0 Z " fill="#888689" transform="translate(210,287)"/>
<path d="M0 0 C1.15941038 3.47823115 0.70820884 5.45895578 0 9 C-0.99 9.33 -1.98 9.66 -3 10 C-3.36923077 3.47692308 -3.36923077 3.47692308 -1.5 1.0625 C-1.005 0.711875 -0.51 0.36125 0 0 Z " fill="#AAA8AA" transform="translate(346,283)"/>
<path d="M0 0 C2.875 -0.125 2.875 -0.125 6 0 C8 2 8 2 8 5 C7.34 5 6.68 5 6 5 C5.67 4.34 5.34 3.68 5 3 C2.47266765 2.34444881 2.47266765 2.34444881 0 2 C0 1.34 0 0.68 0 0 Z " fill="#878889" transform="translate(165,283)"/>
<path d="M0 0 C0.33 0 0.66 0 1 0 C1 1.65 1 3.3 1 5 C1.66 5 2.32 5 3 5 C3 5.99 3 6.98 3 8 C4.65 8 6.3 8 8 8 C8 8.33 8 8.66 8 9 C5.125 9.125 5.125 9.125 2 9 C0 7 0 7 -0.125 3.375 C-0.08375 2.26125 -0.0425 1.1475 0 0 Z " fill="#868487" transform="translate(344,287)"/>
<path d="M0 0 C2.475 0.99 2.475 0.99 5 2 C4.67 3.32 4.34 4.64 4 6 C2.68 6 1.36 6 0 6 C0 5.34 0 4.68 0 4 C0.66 4 1.32 4 2 4 C2 3.34 2 2.68 2 2 C1.34 2 0.68 2 0 2 C0 1.34 0 0.68 0 0 Z " fill="#E3E1E4" transform="translate(305,289)"/>
<path d="M0 0 C1.65 0 3.3 0 5 0 C4.67 1.32 4.34 2.64 4 4 C2.68 4 1.36 4 0 4 C0 2.68 0 1.36 0 0 Z " fill="#C8C6C8" transform="translate(446,285)"/>
<path d="M0 0 C1.98 0 3.96 0 6 0 C6 0.66 6 1.32 6 2 C4.68 2 3.36 2 2 2 C1.67 2.99 1.34 3.98 1 5 C0.34 5 -0.32 5 -1 5 C-0.67 3.35 -0.34 1.7 0 0 Z " fill="#9F9D9E" transform="translate(381,283)"/>
<path d="M0 0 C1.32 0.66 2.64 1.32 4 2 C2.68 3.65 1.36 5.3 0 7 C0 6.34 0 5.68 0 5 C-0.66 5 -1.32 5 -2 5 C-1.34 3.35 -0.68 1.7 0 0 Z " fill="#ADE3C7" transform="translate(202,249)"/>
<path d="M0 0 C0.66 0.33 1.32 0.66 2 1 C0.515 4.465 0.515 4.465 -1 8 C-1.66 7.67 -2.32 7.34 -3 7 C-1.125 1.125 -1.125 1.125 0 0 Z " fill="#C2EFDC" transform="translate(210,233)"/>
<path d="M0 0 C0.33 0 0.66 0 1 0 C1.125 3.375 1.125 3.375 1 7 C-1 9 -1 9 -4.125 9.125 C-5.548125 9.063125 -5.548125 9.063125 -7 9 C-7 8.67 -7 8.34 -7 8 C-5.35 8 -3.7 8 -2 8 C-1.34 5.36 -0.68 2.72 0 0 Z " fill="#7F7D80" transform="translate(197,287)"/>
<path d="M0 0 C0.99 0 1.98 0 3 0 C3 2.31 3 4.62 3 7 C2.34 7 1.68 7 1 7 C0.67 4.69 0.34 2.38 0 0 Z " fill="#DAFBF0" transform="translate(350,226)"/>
<path d="M0 0 C0.33 0 0.66 0 1 0 C0.125 6.875 0.125 6.875 -1 8 C-2.99958364 8.04080783 -5.00045254 8.04254356 -7 8 C-6.38125 7.71125 -5.7625 7.4225 -5.125 7.125 C-2.86674235 6.06279958 -2.86674235 6.06279958 -1 4 C-0.3574765 1.93125966 -0.3574765 1.93125966 0 0 Z " fill="#817F82" transform="translate(439,288)"/>
<path d="M0 0 C1.65 0 3.3 0 5 0 C4.01 0.495 4.01 0.495 3 1 C3 2.32 3 3.64 3 5 C2.01 5 1.02 5 0 5 C0 3.35 0 1.7 0 0 Z " fill="#A1A1A3" transform="translate(164,291)"/>
<path d="M0 0 C1.32 0.66 2.64 1.32 4 2 C4 2.99 4 3.98 4 5 C2.35 5 0.7 5 -1 5 C-0.67 3.35 -0.34 1.7 0 0 Z " fill="#E1DFE2" transform="translate(458,290)"/>
<path d="M0 0 C2.64 0 5.28 0 8 0 C8 0.33 8 0.66 8 1 C6.7934375 1.185625 6.7934375 1.185625 5.5625 1.375 C4.716875 1.58125 3.87125 1.7875 3 2 C2.67 2.66 2.34 3.32 2 4 C1.01 4 0.02 4 -1 4 C-0.67 2.68 -0.34 1.36 0 0 Z " fill="#8D8D8F" transform="translate(235,292)"/>
<path d="M0 0 C0.66 0.33 1.32 0.66 2 1 C1.67 2.32 1.34 3.64 1 5 C-0.65 5 -2.3 5 -4 5 C-3 2 -3 2 0 0 Z " fill="#E5FBF4" transform="translate(315,258)"/>
<path d="M0 0 C0.99 0 1.98 0 3 0 C2.67 1.98 2.34 3.96 2 6 C1.34 5.34 0.68 4.68 0 4 C-0.99 4 -1.98 4 -3 4 C-1.6875 2 -1.6875 2 0 0 Z " fill="#A0E0C0" transform="translate(353,255)"/>
<path d="M0 0 C0.33 0.66 0.66 1.32 1 2 C1.99 2.33 2.98 2.66 4 3 C3.67 4.32 3.34 5.64 3 7 C3 6.34 3 5.68 3 5 C2.01 5.33 1.02 5.66 0 6 C-0.38218767 4.34385343 -0.71395102 2.67542976 -1 1 C-0.67 0.67 -0.34 0.34 0 0 Z " fill="#B0DCC9" transform="translate(211,230)"/>
</svg>
