<?xml version="1.0" encoding="UTF-8"?>
<svg viewBox="0 0 416 83" version="1.1" xmlns="http://www.w3.org/2000/svg" xmlns:xlink="http://www.w3.org/1999/xlink">
    <title>elements/logo_subline</title>
    <g id="elements/logo_subline" stroke="none" stroke-width="1" fill="none" fill-rule="evenodd">
        <g id="Group-3" fill="#133579">
            <path d="M388.91529,45.3340845 L415.410453,45.3340845 L415.410453,38.064115 L396.866973,38.064115 L396.866973,4.48474537 L388.91529,4.48474537 L388.91529,45.3340845 Z M372.822027,45.3285546 L380.80874,45.3285546 L380.80874,8.50129291 C380.80874,6.2266625 379.171574,4.49027527 377.023717,4.49027527 L352.999051,4.49027527 C350.906503,4.49027527 349.269337,6.2266625 349.269337,8.50129291 L349.269337,45.3285546 L357.221021,45.3285546 L357.221021,28.5766574 L372.822027,28.5766574 L372.822027,45.3285546 Z M357.204428,20.7315788 L372.807278,20.7315788 L372.807278,12.3077044 L357.204428,12.3077044 L357.204428,20.7315788 Z M341.738008,41.385739 L341.738008,25.2679365 C341.738008,23.0522917 340.097155,21.2532323 337.951141,21.2532323 L317.755746,21.2532323 L317.755746,12.3795931 L341.738008,12.3795931 L341.738008,8.50129291 C341.738008,6.2285058 340.097155,4.49027527 337.951141,4.49027527 L313.596461,4.49027527 C311.505756,4.49027527 309.866747,6.2285058 309.866747,8.50129291 L309.866747,25.0872933 C309.866747,27.3029381 311.505756,29.1314903 313.596461,29.1314903 L333.718109,29.1314903 L333.718109,37.4152739 L309.866747,37.4152739 L309.866747,41.385739 C309.866747,43.5995406 311.505756,45.3359278 313.596461,45.3359278 L337.951141,45.3359278 C340.097155,45.3359278 341.738008,43.5995406 341.738008,41.385739 L341.738008,41.385739 Z M296.078053,67.2896135 C296.078053,65.9200427 297.051503,65.0997749 298.937562,65.0997749 C300.915803,65.0997749 301.857911,66.0103643 301.857911,67.8057371 L306.299275,67.8057371 C306.299275,63.4573959 303.89515,61.3892149 299.029745,61.3892149 C294.101655,61.3892149 291.515008,63.5163814 291.515008,67.7449083 C291.515008,71.5162971 293.249887,73.219505 297.842431,73.9494512 C300.915803,74.436082 302.010934,75.1660282 302.010934,76.8692361 C302.010934,78.3604646 301.006142,79.0885675 298.998402,79.0885675 C296.778642,79.0885675 295.652169,78.2074708 295.652169,76.2001187 L291.210805,76.2001187 C291.210805,80.7327899 293.61493,82.8009708 298.876721,82.8009708 C304.048173,82.8009708 306.57398,80.7014538 306.57398,76.4139414 C306.57398,72.5208948 304.899941,70.6646932 300.064035,69.966083 C297.143686,69.5402811 296.078053,68.8398276 296.078053,67.2896135 L296.078053,67.2896135 Z M294.324738,45.3285546 L302.31145,45.3285546 L302.31145,28.6374863 C302.31145,26.3075569 298.786382,24.6836109 296.638524,24.6872975 C298.786382,24.6872975 302.31145,23.1112772 302.31145,20.6725932 L302.31145,8.50129291 C302.31145,6.2229759 300.672441,4.48658867 298.52827,4.48658867 L269.110915,4.48658867 L269.110915,45.3285546 L277.095784,45.3285546 L277.095784,28.5766574 L294.324738,28.5766574 L294.324738,45.3285546 Z M277.097627,20.7315788 L294.258366,20.7315788 L294.258366,12.3058611 L277.097627,12.3058611 L277.097627,20.7315788 Z M232.287598,45.3340845 L261.653331,45.3340845 L261.653331,37.44661 L240.237437,37.44661 L240.237437,28.5766574 L260.298245,28.5766574 L260.298245,20.6965561 L240.237437,20.6965561 L240.237437,12.3390405 L261.653331,12.3390405 L261.653331,4.48658867 L232.287598,4.48658867 L232.287598,45.3340845 Z M216.675529,45.3340845 L224.653023,45.3340845 L224.653023,8.27456719 C224.653023,5.9722873 222.995577,4.21193718 220.821908,4.21193718 L186.618425,4.21193718 C184.501909,4.21193718 182.84262,5.9722873 182.84262,8.27456719 L182.844464,45.3340845 L190.880955,45.3340845 L190.880955,12.0607024 L199.713905,12.0607024 L199.713905,45.3377711 L207.859172,45.3377711 L207.859172,12.0809787 L216.675529,12.0809787 L216.675529,45.3340845 Z M187.661933,74.8010551 L180.635765,61.754188 L175.798015,61.754188 L175.798015,82.4359977 L180.117698,82.4359977 L180.117698,68.5061906 L187.632435,82.4359977 L191.981617,82.4359977 L191.981617,61.754188 L187.661933,61.754188 L187.661933,74.8010551 Z M167.123619,45.3377711 L175.141674,45.3377711 L175.141674,4.48843197 L167.123619,4.48843197 L167.123619,20.6615334 L151.391713,20.6615334 L151.391713,4.48843197 L143.421593,4.48843197 L143.421593,45.3377711 L151.391713,45.3377711 L151.391713,28.5766574 L167.123619,28.5766574 L167.123619,45.3377711 Z M112.735803,45.3377711 L137.118137,45.3377711 L137.118137,37.4502966 L116.996489,37.4502966 L116.996489,12.3574735 L137.118137,12.3574735 L137.118137,4.48658867 L112.735803,4.48658867 C110.646942,4.48658867 109.007933,6.2229759 109.007933,8.49944961 L109.007933,41.3838957 C109.007933,43.5995406 110.646942,45.3377711 112.735803,45.3377711 L112.735803,45.3377711 Z M104.585005,61.754188 L104.585005,69.934747 L97.466654,69.934747 L97.466654,61.754188 L92.9036084,61.754188 L92.9036084,82.4359977 L97.466654,82.4359977 L97.466654,73.8886223 L104.585005,73.8886223 L104.585005,82.4359977 L109.148051,82.4359977 L109.148051,61.754188 L104.585005,61.754188 Z M102.324684,41.3820524 L102.324684,25.2495035 C102.324684,23.0338587 100.685675,21.2366426 98.5396611,21.2366426 L78.4770097,21.2366426 L78.4770097,12.3759065 L102.324684,12.3759065 L102.324684,8.50129291 C102.324684,6.2266625 100.685675,4.48843197 98.5396611,4.48843197 L74.1831377,4.48843197 C72.0942768,4.48843197 70.4552677,6.2266625 70.4552677,8.50129291 L70.4552677,25.067017 C70.4552677,27.2863484 72.0942768,29.1167439 74.1831377,29.1167439 L94.304786,29.1167439 L94.304786,37.4355502 L70.4552677,37.4355502 L70.4552677,41.3820524 C70.4552677,43.5995406 72.0942768,45.3377711 74.1831377,45.3377711 L98.5396611,45.3377711 C100.685675,45.3377711 102.324684,43.5995406 102.324684,41.3820524 L102.324684,41.3820524 Z M86.0894603,61.754188 L70.453424,61.754188 L70.453424,65.7375562 L75.9899194,65.7375562 L75.9899194,82.4359977 L80.552965,82.4359977 L80.552965,65.7375562 L86.0894603,65.7375562 L86.0894603,61.754188 Z M42.0150489,37.396841 L42.0150489,12.1934199 C42.0150489,5.4616936 36.5559871,0 29.8211162,0 L12.1957764,0 C5.46090548,0 0,5.4616936 0,12.1934199 L0,37.396841 C0,44.1304106 5.46090548,49.5902609 12.1957764,49.5902609 L29.8211162,49.5902609 C36.5559871,49.5902609 42.0150489,44.1304106 42.0150489,37.396841 L42.0150489,37.396841 Z M40.2598896,37.1774884 C40.2598896,43.0152149 35.5272277,47.745119 29.688373,47.745119 L12.3451125,47.745119 C6.5081014,47.745119 1.77543956,43.0152149 1.77543956,37.1774884 L1.77543956,12.4053992 C1.77543956,6.56951603 6.5081014,1.83961195 12.3451125,1.83961195 L29.688373,1.83961195 C35.5272277,1.83961195 40.2598896,6.56951603 40.2598896,12.4053992 L40.2598896,37.1774884 Z M19.1518859,11.9943437 L19.1518859,14.009069 C18.4476098,14.5583719 17.9940707,15.4173491 17.9940707,16.3777076 C17.9940707,18.0403629 19.3399387,19.3822842 20.999228,19.3822842 C22.6585173,19.3822842 24.006229,18.0403629 24.006229,16.3777076 C24.006229,15.4173491 23.5508462,14.5583719 22.8447265,14.009069 L22.8447265,11.9943437 L19.1518859,11.9943437 Z M29.5722228,21.9463125 L28.2742898,21.9463125 L30.5622654,17.2956703 L27.2455304,15.6569779 L24.2422168,21.9463125 L12.2787409,21.9463125 C10.9328729,21.9463125 9.8395856,20.3629191 9.8395856,19.0154678 L9.8395856,12.1325911 C9.8395856,10.7851398 10.9328729,9.69390707 12.2787409,9.69390707 L29.6238451,9.69390707 C30.9697131,9.69390707 32.0648441,10.7851398 32.0648441,12.1325911 L32.0630004,16.1933778 L37.9756013,16.213654 L37.9645394,12.6100054 C37.9645394,7.97042293 34.2053273,4.20640729 29.5648482,4.20640729 L12.4907612,4.20640729 C7.85212574,4.20640729 4.09106997,7.97042293 4.09106997,12.6100054 L4.09106997,18.5693896 C4.09106997,23.208972 7.85396939,27.4633051 12.4944485,27.4633051 L21.5560118,27.4633051 L20.2064565,30.1342447 C18.991488,30.488158 17.9737905,31.5296217 17.9737905,32.9784543 C17.9737905,33.9203799 18.4125804,34.7572374 19.1002636,35.3046971 L19.1002636,37.2198843 L22.761762,37.2198843 L22.761762,35.254928 C23.4199468,34.7148416 23.8403001,33.8890438 23.8403001,32.9710811 C23.8403001,32.4973534 23.7315244,32.0568051 23.536097,31.6604959 L25.6009904,27.4633051 L29.6238451,27.4633051 C30.9697131,27.4633051 32.0648441,28.5324182 32.0648441,29.8927726 L32.0648441,37.3544451 C32.0648441,38.7129561 30.9697131,39.817092 29.6238451,39.817092 L12.2787409,39.817092 C10.9328729,39.817092 9.8395856,38.7129561 9.8395856,37.3544451 L9.8395856,33.5056377 L4.09106997,33.4595553 L4.09106997,36.9304864 C4.09106997,41.5700689 7.85212574,45.3303979 12.4907612,45.3303979 L29.5648482,45.3303979 C34.2053273,45.3303979 37.9645394,41.5700689 37.9645394,36.9304864 L37.9645394,30.3425374 C37.9645394,25.7047983 34.2108582,21.9463125 29.5722228,21.9463125 L29.5722228,21.9463125 Z M132.23614,61.754188 L118.060278,61.754188 L118.060278,82.4359977 L132.540343,82.4359977 L132.540343,78.5116151 L122.623324,78.5116151 L122.623324,73.8572863 L130.715124,73.8572863 L130.715124,69.966083 L122.623324,69.966083 L122.623324,65.6767273 L132.23614,65.6767273 L132.23614,61.754188 Z M159.614413,61.754188 L151.918998,61.754188 L151.918998,82.4359977 L159.614413,82.4359977 C165.182251,82.4359977 167.645373,79.9106787 167.645373,74.2849315 L167.645373,69.9034109 C167.645373,64.3089998 165.182251,61.754188 159.614413,61.754188 L159.614413,61.754188 Z M158.976509,65.6472345 C162.048038,65.6472345 163.082328,66.7716466 163.082328,69.9955758 L163.082328,74.1927666 C163.082328,77.4166958 162.048038,78.5429512 158.976509,78.5429512 L156.482044,78.5429512 L156.482044,65.6472345 L158.976509,65.6472345 Z M205.609913,61.754188 L198.674084,82.4359977 L203.29797,82.4359977 L204.605121,78.2682997 L211.115066,78.2682997 L212.424061,82.4359977 L217.259967,82.4359977 L210.324138,61.754188 L205.609913,61.754188 Z M205.731594,74.4674181 L207.861015,66.9246404 L209.990437,74.4674181 L205.731594,74.4674181 Z M234.874245,69.8130892 L234.874245,74.3752532 C234.874245,80.1539941 237.51989,82.8009708 243.238907,82.8009708 C248.957924,82.8009708 251.605412,80.1539941 251.605412,74.3752532 L251.605412,69.8130892 C251.605412,64.0343483 248.957924,61.3892149 243.238907,61.3892149 C237.51989,61.3892149 234.874245,64.0343483 234.874245,69.8130892 L234.874245,69.8130892 Z M239.437291,69.8739181 C239.437291,66.6204962 240.50108,65.3117542 243.238907,65.3117542 C245.976734,65.3117542 247.042367,66.6204962 247.042367,69.8739181 L247.042367,74.3144243 C247.042367,77.5696895 245.976734,78.8765882 243.238907,78.8765882 C240.50108,78.8765882 239.437291,77.5696895 239.437291,74.3144243 L239.437291,69.8739181 Z M273.720052,61.754188 L259.787552,61.754188 L259.787552,82.4359977 L264.350598,82.4359977 L264.350598,74.0711089 L272.199036,74.0711089 L272.199036,70.1485696 L264.350598,70.1485696 L264.350598,65.6767273 L273.720052,65.6767273 L273.720052,61.754188 Z M318.832441,61.754188 L311.896611,82.4359977 L316.520497,82.4359977 L317.827649,78.2682997 L324.337594,78.2682997 L325.646589,82.4359977 L330.482495,82.4359977 L323.546666,61.754188 L318.832441,61.754188 Z M318.954122,74.4674181 L321.083543,66.9246404 L323.212964,74.4674181 L318.954122,74.4674181 Z M351.107461,61.754188 L337.174962,61.754188 L337.174962,82.4359977 L341.738008,82.4359977 L341.738008,74.0711089 L349.586446,74.0711089 L349.586446,70.1485696 L341.738008,70.1485696 L341.738008,65.6767273 L351.107461,65.6767273 L351.107461,61.754188 Z M372.552854,61.754188 L358.376992,61.754188 L358.376992,82.4359977 L372.857057,82.4359977 L372.857057,78.5116151 L362.940038,78.5116151 L362.940038,73.8572863 L371.031839,73.8572863 L371.031839,69.966083 L362.940038,69.966083 L362.940038,65.6767273 L372.552854,65.6767273 L372.552854,61.754188 Z M394.121771,61.754188 L378.485735,61.754188 L378.485735,65.7375562 L384.02223,65.7375562 L384.02223,82.4359977 L388.585276,82.4359977 L388.585276,65.7375562 L394.121771,65.7375562 L394.121771,61.754188 Z M403.187022,61.754188 L397.984228,61.754188 L404.737535,73.8277935 L404.737535,82.4359977 L409.300581,82.4359977 L409.300581,73.7374719 L416.02439,61.754188 L411.217982,61.754188 L407.202502,69.2361368 L403.187022,61.754188 Z" id="Fill-1"></path>
        </g>
    </g>
</svg>