<?xml version="1.0" encoding="UTF-8"?>
<svg xmlns="http://www.w3.org/2000/svg" width="225.354" height="26.5" viewBox="0 0 225.354 26.5">
  <g id="Gruppe_2431" data-name="Gruppe 2431" transform="translate(0 0)">
    <path id="Pfad_3444" data-name="Pfad 3444" d="M304.963,231.332h17.588a11.026,11.026,0,0,0-2.955-7.7,9.515,9.515,0,0,0-13.321.035,11.465,11.465,0,0,0-3.138,8.246,11.947,11.947,0,0,0,3.249,8.5,10.3,10.3,0,0,0,7.517,2.991,13.3,13.3,0,0,0,8.282-2.808v-1.824a12.518,12.518,0,0,1-7.994,2.955,9.557,9.557,0,0,1-7.152-3.178,8.817,8.817,0,0,1-2.114-6.934Zm.33-1.972c.871-4.161,3.832-6.751,7.735-6.751,4.014,0,6.5,2.26,7.37,6.751l.076.4H305.215Z" transform="translate(-231.279 -219.029)" fill-rule="evenodd"></path>
    <path id="Pfad_3445" data-name="Pfad 3445" d="M341.978,240.522l-14.851-19.306h-1.46V243.3h1.712v-19.3l14.892,19.3h1.419V221.216h-1.713Z" transform="translate(-231.035 -219.026)" fill-rule="evenodd"></path>
    <path id="Pfad_3446" data-name="Pfad 3446" d="M409.169,221.076,399.64,243.3h3.25l2.772-6.529h9.418l2.956,6.529h3.249l-9.889-22.22ZM406.9,233.919l3.319-7.957,3.579,7.957Z" transform="translate(-230.235 -219.027)" fill-rule="evenodd"></path>
    <path id="Pfad_3447" data-name="Pfad 3447" d="M290.015,226.734a4.373,4.373,0,0,1,4.673-4.237c1.5,0,2.661.405,4.962,1.718v-1.9a10.5,10.5,0,0,0-5.144-1.385,6.1,6.1,0,0,0-6.352,5.875c0,7.264,10.549,4.526,10.549,10.8a4.494,4.494,0,0,1-4.674,4.415c-1.713,0-3.1-.583-5.586-2.372v2.007a10.47,10.47,0,0,0,5.7,1.936,6.2,6.2,0,0,0,6.422-6.057c0-7.74-10.548-4.927-10.548-10.8" transform="translate(-231.441 -219.029)" fill-rule="evenodd"></path>
    <path id="Pfad_3448" data-name="Pfad 3448" d="M373.555,220.931a11.337,11.337,0,1,0,11.712,11.348,11.39,11.39,0,0,0-11.712-11.348m.035,21.09a9.763,9.763,0,1,1,9.854-9.742,9.705,9.705,0,0,1-9.854,9.742" transform="translate(-230.643 -219.029)" fill-rule="evenodd"></path>
    <path id="Pfad_3449" data-name="Pfad 3449" d="M431.73,232.788a5.489,5.489,0,0,0,3.685-5.367c0-3.832-2.813-6.2-7.264-6.2h-5.586v22.079h3.178V233.7h1.313c1.643,0,2.955.511,5.874,5.073l2.919,4.521h3.8a50.285,50.285,0,0,1-2.99-4.379c-1.718-2.737-2.92-4.78-4.927-6.128m-3.943-1.9h-2.043v-6.934h2.043c3.067,0,4.308,1.242,4.344,3.326.036,1.86-.948,3.609-4.344,3.609" transform="translate(-229.987 -219.026)" fill-rule="evenodd"></path>
    <path id="Pfad_3450" data-name="Pfad 3450" d="M402.175,227.567c0-3.5-2.188-6.351-7.01-6.351h-6.933v22.079h3.178v-9.559h3.321c5.109,0,7.445-2.7,7.445-6.169m-7.157,3.361H391.41v-6.863h3.755c2.885,0,3.762,1.754,3.762,3.4,0,2.189-1.536,3.467-3.909,3.467" transform="translate(-230.358 -219.026)" fill-rule="evenodd"></path>
    <path id="Pfad_3451" data-name="Pfad 3451" d="M437.264,221.216v2.848h7.37V243.3h3.178v-19.23h7.37v-2.848Z" transform="translate(-229.827 -219.026)" fill-rule="evenodd"></path>
    <path id="Pfad_3452" data-name="Pfad 3452" d="M349.155,226.734a4.372,4.372,0,0,1,4.668-4.237c1.5,0,2.667.405,4.962,1.718v-1.9a10.476,10.476,0,0,0-5.145-1.385,6.1,6.1,0,0,0-6.351,5.875c0,7.264,10.549,4.526,10.549,10.8a4.49,4.49,0,0,1-4.669,4.415c-1.717,0-3.1-.583-5.586-2.372v2.007a10.457,10.457,0,0,0,5.693,1.936,6.2,6.2,0,0,0,6.422-6.057c0-7.74-10.543-4.927-10.543-10.8" transform="translate(-230.801 -219.029)" fill-rule="evenodd"></path>
    <path id="Pfad_3453" data-name="Pfad 3453" d="M247.357,232.266a13.2,13.2,0,0,0,4.708,10.107,12.25,12.25,0,0,0,0-20.214,13.146,13.146,0,0,0-4.708,10.107" transform="translate(-231.882 -219.015)" fill="#e30613" fill-rule="evenodd"></path>
    <path id="Pfad_3454" data-name="Pfad 3454" d="M247.357,232.266a13.2,13.2,0,0,0,4.708,10.107,12.25,12.25,0,0,0,0-20.214A13.146,13.146,0,0,0,247.357,232.266Z" transform="translate(-231.882 -219.015)" fill="none" stroke="#e30613" stroke-miterlimit="2.613" stroke-width="0.217"></path>
    <path id="Pfad_3455" data-name="Pfad 3455" d="M260.766,219.049a13.2,13.2,0,0,0-7.735,2.486,13.267,13.267,0,1,0,0,21.495,13.241,13.241,0,1,0,7.735-23.98m-8.535,23.357a12.25,12.25,0,1,1,5.327-10.106,12.231,12.231,0,0,1-5.327,10.106" transform="translate(-232.048 -219.049)" fill-rule="evenodd"></path>
  </g>
</svg>
